<?xml version="1.0" encoding="UTF-8" standalone="no" ?>
<!DOCTYPE svg PUBLIC "-//W3C//DTD SVG 1.1//EN" "http://www.w3.org/Graphics/SVG/1.1/DTD/svg11.dtd">
<svg xmlns="http://www.w3.org/2000/svg" xmlns:xlink="http://www.w3.org/1999/xlink" version="1.1" width="1080" height="850" viewBox="0 0 1080 850" xml:space="preserve">
<desc>Created with Fabric.js 5.2.4</desc>
<defs>
</defs>
<g transform="matrix(0 0 0 0 0 0)" id="912c67f2-28d5-48b0-9290-ed0e6721c465"  >
</g>
<g transform="matrix(1 0 0 1 540 425)" id="7df22a98-c5bc-4313-a127-e00990b8f9ba"  >
<rect style="stroke: none; stroke-width: 1; stroke-dasharray: none; stroke-linecap: butt; stroke-dashoffset: 0; stroke-linejoin: miter; stroke-miterlimit: 4; fill: rgb(255,255,255); fill-rule: nonzero; opacity: 1; visibility: hidden;" vector-effect="non-scaling-stroke"  x="-540" y="-425" rx="0" ry="0" width="1080" height="850" />
</g>
<g transform="matrix(4.18 0 0 4.18 484.3 575.37)"  >
<g style="" vector-effect="non-scaling-stroke"   >
		<g transform="matrix(0.62 0 0 0.62 -1.35 -49.51)"  >
<line style="stroke: rgb(0,0,0); stroke-width: 4; stroke-dasharray: none; stroke-linecap: butt; stroke-dashoffset: 0; stroke-linejoin: miter; stroke-miterlimit: 4; fill: none; fill-rule: nonzero; opacity: 1;" vector-effect="non-scaling-stroke"  x1="0" y1="82.35" x2="0" y2="-82.35" />
</g>
		<g transform="matrix(0.62 0 0 0.62 -1.36 -104.32)"  >
<path style="stroke: none; stroke-width: 1; stroke-dasharray: none; stroke-linecap: butt; stroke-dashoffset: 0; stroke-linejoin: miter; stroke-miterlimit: 4; fill: rgb(0,0,0); fill-rule: nonzero; opacity: 1;" vector-effect="non-scaling-stroke"  transform=" translate(-241.45, -74.15)" d="M 239 74.6 C 237.8 78.6 236.7 81.1 235.4 84.3 L 247.5 84.3 C 247 83.2 245.1 78.5 243.9 74.6 C 242.6 70.39999999999999 241.70000000000002 66.5 241.4 63.99999999999999 C 241.2 66.5 240.3 70.4 239 74.6 z" stroke-linecap="round" />
</g>
		<g transform="matrix(0.62 0 0 0.62 49.55 0.8)"  >
<line style="stroke: rgb(0,0,0); stroke-width: 4; stroke-dasharray: none; stroke-linecap: butt; stroke-dashoffset: 0; stroke-linejoin: miter; stroke-miterlimit: 4; fill: none; fill-rule: nonzero; opacity: 1;" vector-effect="non-scaling-stroke"  x1="-82.1" y1="0" x2="82.1" y2="0" />
</g>
		<g transform="matrix(0.62 0 0 0.62 103.54 0.86)"  >
<path style="stroke: none; stroke-width: 1; stroke-dasharray: none; stroke-linecap: butt; stroke-dashoffset: 0; stroke-linejoin: miter; stroke-miterlimit: 4; fill: rgb(0,0,0); fill-rule: nonzero; opacity: 1;" vector-effect="non-scaling-stroke"  transform=" translate(-411.85, -245.05)" d="M 411.4 242.6 C 407.4 241.4 404.9 240.29999999999998 401.7 239 L 401.7 251.1 C 402.8 250.6 407.5 248.7 411.4 247.5 C 415.59999999999997 246.2 419.5 245.3 422 245 C 419.5 244.7 415.7 243.9 411.4 242.6 z" stroke-linecap="round" />
</g>
		<g transform="matrix(0.62 0 0 0.62 -35.45 21.32)"  >
<line style="stroke: rgb(0,0,0); stroke-width: 4; stroke-dasharray: none; stroke-linecap: butt; stroke-dashoffset: 0; stroke-linejoin: miter; stroke-miterlimit: 4; fill: none; fill-rule: nonzero; opacity: 1;" vector-effect="non-scaling-stroke"  x1="55.8" y1="-33.099999999999994" x2="-55.8" y2="33.099999999999994" />
</g>
		<g transform="matrix(0.62 0 0 0.62 -72.25 41.85)"  >
<path style="stroke: none; stroke-width: 1; stroke-dasharray: none; stroke-linecap: butt; stroke-dashoffset: 0; stroke-linejoin: miter; stroke-miterlimit: 4; fill: rgb(0,0,0); fill-rule: nonzero; opacity: 1;" vector-effect="non-scaling-stroke"  transform=" translate(-126.25, -311.65)" d="M 126.3 316.2 C 130.3 315.2 133.1 314.8 136.5 314.3 L 130.3 303.90000000000003 C 129.60000000000002 304.90000000000003 126.60000000000001 308.90000000000003 123.80000000000001 311.90000000000003 C 120.80000000000001 315.20000000000005 117.9 317.90000000000003 116.00000000000001 319.40000000000003 C 118.2 318.5 122 317.3 126.3 316.2 z" stroke-linecap="round" />
</g>
		<g transform="matrix(0.62 0 0 0.62 125.45 0.29)" style=""  >
		<text xml:space="preserve" font-family="'Nimbus Roman No9 L',Times,serif" font-size="36" font-style="italic" font-weight="normal" style="stroke: none; stroke-width: 1; stroke-dasharray: none; stroke-linecap: butt; stroke-dashoffset: 0; stroke-linejoin: miter; stroke-miterlimit: 4; fill: rgb(0,0,0); fill-rule: nonzero; opacity: 1; white-space: pre;" ><tspan x="-10.01" y="11.31" >L</tspan></text>
</g>
		<g transform="matrix(0.62 0 0 0.62 -0.7 -125.89)" style=""  >
		<text xml:space="preserve" font-family="'Nimbus Roman No9 L',Times,serif" font-size="36" font-style="italic" font-weight="normal" style="stroke: none; stroke-width: 1; stroke-dasharray: none; stroke-linecap: butt; stroke-dashoffset: 0; stroke-linejoin: miter; stroke-miterlimit: 4; fill: rgb(0,0,0); fill-rule: nonzero; opacity: 1; white-space: pre;" ><tspan x="-9" y="11.31" >S</tspan></text>
</g>
		<g transform="matrix(0.62 0 0 0.62 -92.46 50.76)" style=""  >
		<text xml:space="preserve" font-family="'Nimbus Roman No9 L',Times,serif" font-size="36" font-style="italic" font-weight="normal" style="stroke: none; stroke-width: 1; stroke-dasharray: none; stroke-linecap: butt; stroke-dashoffset: 0; stroke-linejoin: miter; stroke-miterlimit: 4; fill: rgb(0,0,0); fill-rule: nonzero; opacity: 1; white-space: pre;" ><tspan x="-11" y="11.31" >A</tspan></text>
</g>
		<g transform="matrix(0.62 0 0 0.62 1.09 1.09)"  >
<rect style="stroke: none; stroke-width: 1; stroke-dasharray: none; stroke-linecap: butt; stroke-dashoffset: 0; stroke-linejoin: miter; stroke-miterlimit: 4; fill: none; fill-rule: nonzero; opacity: 1;" vector-effect="non-scaling-stroke"  x="-243.7" y="-243.7" rx="0" ry="0" width="487.4" height="487.4" />
</g>
</g>
</g>
</svg>