<?xml version="1.0" encoding="utf-8"?>
<!-- Generator: Adobe Illustrator 25.0.0, SVG Export Plug-In . SVG Version: 6.00 Build 0)  -->
<svg version="1.1" id="Layer_1" xmlns="http://www.w3.org/2000/svg" xmlns:xlink="http://www.w3.org/1999/xlink" x="0px" y="0px"
	 width="790.65px" height="768px" viewBox="0 0 790.65 768" enable-background="new 0 0 790.65 768" xml:space="preserve">
<g>
	<polygon fill="#FFFFFF" points="239.02,512.8 240.62,542.16 266.15,559.13 264.82,529.16 	"/>
	<polygon fill="#FFFFFF" points="299.15,550.94 300.2,581.77 328.25,600.42 327.72,569.06 	"/>
	<polygon fill="#FFFFFF" points="211.07,495.07 212.88,523.72 236.26,539.26 234.66,510.03 	"/>
	<polygon fill="#FFFFFF" points="431.24,589.26 430.84,621.93 459.24,603.32 459.98,570.97 	"/>
	<polygon fill="#FFFFFF" points="397.56,610.69 397.56,643.75 426.61,624.71 427.01,591.95 	"/>
	<polygon fill="#FFFFFF" points="164.95,282.3 140.53,269.3 143.46,303.97 167.53,317.33 	"/>
	<polygon fill="#FFFFFF" points="331.96,571.75 332.49,603.25 360.2,621.67 359.78,589.4 	"/>
	<polygon fill="#FFFFFF" points="269.14,531.9 270.48,562.01 295.9,578.92 294.86,548.21 	"/>
	<polygon fill="#FFFFFF" points="183.57,477.62 185.63,505.6 208.49,520.8 206.69,492.29 	"/>
	<polygon fill="#FFFFFF" points="173.64,400.13 150.39,386.06 152.95,416.36 175.89,430.67 	"/>
	<polygon fill="#FFFFFF" points="167.9,322.33 143.88,309 146.8,343.59 170.48,357.37 	"/>
	<polygon fill="#FFFFFF" points="170.86,362.45 147.23,348.7 149.95,380.89 173.26,395 	"/>
	<polygon fill="#FFFFFF" points="156.68,460.57 158.99,487.88 181.2,502.65 179.15,474.82 	"/>
	<polygon fill="#FFFFFF" points="176.27,435.85 153.39,421.58 156.24,455.32 178.76,469.61 	"/>
	<polygon fill="#FFFFFF" points="364.02,592.08 364.43,624.49 393.36,643.72 393.36,610.69 	"/>
	<polygon fill="#FFFFFF" points="622.59,356.36 645.18,343.25 648.05,308.61 625.32,321.2 	"/>
	<polygon fill="#FFFFFF" points="625.71,316.19 648.46,303.58 651.33,268.87 628.43,281.05 	"/>
	<polygon fill="#FFFFFF" points="619.43,397.08 641.83,383.85 644.76,348.35 622.2,361.44 	"/>
	<polygon fill="#FFFFFF" points="628.82,276.09 651.75,263.9 654.74,227.63 631.69,239 	"/>
	<polygon fill="#FFFFFF" points="632.85,193.48 655.09,183.03 622.48,171.22 600.33,181.33 	"/>
	<polygon fill="#FFFFFF" points="616.73,431.96 638.97,418.34 641.4,388.98 619.04,402.19 	"/>
	<polygon fill="#FFFFFF" points="632.07,234.14 655.15,222.75 658.17,186.22 634.94,197.13 	"/>
	<polygon fill="#FFFFFF" points="613.93,468.03 636.03,453.97 638.54,423.52 616.33,437.13 	"/>
	<polygon fill="#FFFFFF" points="527.46,528.03 525.89,559.64 550.01,543.83 551.86,512.5 	"/>
	<polygon fill="#FFFFFF" points="464.25,568.25 463.51,600.53 491.34,582.28 492.46,550.3 	"/>
	<polygon fill="#FFFFFF" points="556.23,509.72 554.39,540.97 580.19,524.06 582.16,493.22 	"/>
	<polygon fill="#FFFFFF" points="496.75,547.57 495.64,579.47 521.55,562.49 523.13,530.79 	"/>
	<polygon fill="#FFFFFF" points="586.55,490.43 584.58,521.18 606.73,506.66 609.1,476.08 	"/>
	<polygon fill="#FFFFFF" points="611.16,503.76 633.1,489.38 635.59,459.22 613.53,473.26 	"/>
	<polygon fill="#FFFFFF" points="492.99,166.02 518.34,155.2 490.3,144.72 464.92,155.28 	"/>
	<polygon fill="#FFFFFF" points="591.47,413.6 615.02,399.68 617.79,363.99 593.75,377.94 	"/>
	<polygon fill="#FFFFFF" points="594.07,372.9 618.18,358.91 620.92,323.64 596.36,337.24 	"/>
	<polygon fill="#FFFFFF" points="586.88,485.25 609.5,470.85 611.91,439.83 588.88,453.93 	"/>
	<polygon fill="#FFFFFF" points="589.21,448.81 612.31,434.66 614.63,404.79 591.14,418.66 	"/>
	<polygon fill="#FFFFFF" points="273.16,128.83 298.84,119.51 276.14,110.53 250.53,119.62 	"/>
	<polygon fill="#FFFFFF" points="602.01,248.97 627.69,236.3 630.57,199.19 604.41,211.48 	"/>
	<polygon fill="#FFFFFF" points="599.27,291.8 624.43,278.43 627.32,241.16 601.7,253.8 	"/>
	<polygon fill="#FFFFFF" points="596.68,332.26 621.31,318.62 624.04,283.39 598.95,296.73 	"/>
	<polygon fill="#FFFFFF" points="397.56,571.08 397.56,605.72 427.07,586.94 427.48,552.75 	"/>
	<polygon fill="#FFFFFF" points="558.42,472.58 556.54,504.55 582.49,488.04 584.51,456.61 	"/>
	<polygon fill="#FFFFFF" points="431.71,550.17 431.3,584.25 460.1,565.92 460.87,532.31 	"/>
	<polygon fill="#FFFFFF" points="363.51,552.6 363.95,587.07 393.36,605.72 393.36,571.22 	"/>
	<polygon fill="#FFFFFF" points="465.13,529.7 464.36,563.21 492.64,545.22 493.79,512.15 	"/>
	<polygon fill="#FFFFFF" points="529.33,490.39 527.72,522.89 552.17,507.33 554.06,475.25 	"/>
	<polygon fill="#FFFFFF" points="498.08,509.53 496.93,542.48 523.38,525.65 525,493.04 	"/>
	<polygon fill="#FFFFFF" points="193.76,181.9 169.74,170.83 136.56,182.88 160.82,194.32 	"/>
	<polygon fill="#FFFFFF" points="358.3,143.03 334.12,133.47 308.4,143.17 332.71,153.06 	"/>
	<polygon fill="#FFFFFF" points="327.04,155.29 302.62,145.35 275.9,155.42 300.15,165.83 	"/>
	<polygon fill="#FFFFFF" points="264.67,155.17 240.94,144.99 209.66,156.34 233.6,166.88 	"/>
	<polygon fill="#FFFFFF" points="263.67,180.13 294.59,168.01 270.23,157.56 239.09,169.3 	"/>
	<polygon fill="#FFFFFF" points="158.73,197.97 133.5,186.07 136.63,223.12 161.49,235.37 	"/>
	<polygon fill="#FFFFFF" points="227.99,169 203.96,158.41 175.35,168.79 199.27,179.83 	"/>
	<polygon fill="#FFFFFF" points="161.84,240.23 137.04,228.01 140.11,264.32 164.58,277.35 	"/>
	<polygon fill="#FFFFFF" points="594.77,179.26 616.84,169.18 586.71,158.27 564.9,168.1 	"/>
	<polygon fill="#FFFFFF" points="564.16,193.23 589.37,181.72 559.46,170.55 534.39,181.85 	"/>
	<polygon fill="#FFFFFF" points="389.34,130.87 365.35,121.7 339.97,131.27 364.03,140.79 	"/>
	<polygon fill="#FFFFFF" points="459.22,153.1 484.54,142.57 458.26,132.76 432.7,142.96 	"/>
	<polygon fill="#FFFFFF" points="528.87,179.74 553.87,168.47 524.05,157.33 498.63,168.17 	"/>
	<polygon fill="#FFFFFF" points="426.92,140.75 452.41,130.57 426.38,120.85 400.96,130.82 	"/>
	<polygon fill="#FFFFFF" points="420.49,118.66 396.84,109.82 371.27,119.46 395.14,128.59 	"/>
	<polygon fill="#FFFFFF" points="389.16,86.73 366.45,78.5 345.18,86.05 367.77,94.49 	"/>
	<polygon fill="#FFFFFF" points="637.55,486.46 658.85,472.51 661.53,442.71 640.04,456.39 	"/>
	<polygon fill="#FFFFFF" points="610.75,509.05 608.42,539.08 630.2,524.42 632.66,494.69 	"/>
	<polygon fill="#FFFFFF" points="559.31,166.02 581.05,156.22 551.63,145.56 529.65,154.94 	"/>
	<polygon fill="#FFFFFF" points="634.66,521.42 655.71,507.26 658.36,477.84 637.11,491.77 	"/>
	<polygon fill="#FFFFFF" points="649.61,340.68 671.91,327.74 674.99,293.69 652.46,306.17 	"/>
	<polygon fill="#FFFFFF" points="643.41,415.62 665.18,402.29 667.79,373.39 645.83,386.36 	"/>
	<polygon fill="#FFFFFF" points="646.25,381.24 668.26,368.24 671.45,332.86 649.19,345.78 	"/>
	<polygon fill="#FFFFFF" points="652.88,301.14 675.44,288.64 678.53,254.41 655.74,266.53 	"/>
	<polygon fill="#FFFFFF" points="430.78,626.99 430.4,658.87 458.4,640.03 459.13,608.42 	"/>
	<polygon fill="#FFFFFF" points="463.39,605.62 462.67,637.16 490.07,618.72 491.16,587.42 	"/>
	<polygon fill="#FFFFFF" points="397.56,648.77 397.56,680.97 426.17,661.72 426.55,629.77 	"/>
	<polygon fill="#FFFFFF" points="495.46,584.61 494.37,615.82 519.75,598.75 521.29,567.67 	"/>
	<polygon fill="#FFFFFF" points="584.24,526.42 582.3,556.65 603.98,542.07 606.32,511.95 	"/>
	<polygon fill="#FFFFFF" points="554.08,546.19 552.27,576.86 577.91,559.61 579.85,529.3 	"/>
	<polygon fill="#FFFFFF" points="364.5,629.57 364.91,661.58 393.36,681.1 393.36,648.76 	"/>
	<polygon fill="#FFFFFF" points="525.64,564.83 524.1,595.82 547.89,579.81 549.7,549.05 	"/>
	<polygon fill="#FFFFFF" points="485.78,117.25 509.61,107.74 483.65,98.4 459.68,107.8 	"/>
	<polygon fill="#FFFFFF" points="420.02,75.52 397.59,67.46 372.68,76.3 395.31,84.49 	"/>
	<polygon fill="#FFFFFF" points="453.7,105.64 477.65,96.25 454.72,88 430.36,97.18 	"/>
	<polygon fill="#FFFFFF" points="424.29,94.99 448.63,85.81 426.2,77.75 401.47,86.72 	"/>
	<polygon fill="#FFFFFF" points="330.03,108.19 307.28,99.49 282.16,108.4 304.79,117.35 	"/>
	<polygon fill="#FFFFFF" points="361.69,96.7 339.02,88.23 313.38,97.33 336.06,106 	"/>
	<polygon fill="#FFFFFF" points="331.3,532.52 331.87,566.72 359.72,584.38 359.27,549.97 	"/>
	<polygon fill="#FFFFFF" points="517.66,128.8 541.09,119.06 515.57,109.88 491.71,119.4 	"/>
	<polygon fill="#FFFFFF" points="622.29,166.69 644.88,156.38 614.86,145.58 592.21,155.79 	"/>
	<polygon fill="#FFFFFF" points="660.45,180.51 682.8,170.01 650.53,158.41 627.93,168.73 	"/>
	<polygon fill="#FFFFFF" points="656.15,261.56 678.98,249.42 682.17,214.09 659.14,225.46 	"/>
	<polygon fill="#FFFFFF" points="659.54,220.58 682.61,209.2 685.86,173.21 662.55,184.16 	"/>
	<polygon fill="#FFFFFF" points="551.5,141.05 574.71,131.15 546.95,121.17 523.5,130.92 	"/>
	<polygon fill="#FFFFFF" points="586.54,153.74 609.18,143.54 580.52,133.24 557.28,143.15 	"/>
	<polygon fill="#FFFFFF" points="640.47,451.14 662.01,437.44 664.71,407.5 642.98,420.81 	"/>
	<polygon fill="#FFFFFF" points="270.33,153.03 296.9,143.02 273.08,133.32 246.71,142.9 	"/>
	<polygon fill="#FFFFFF" points="267.28,130.96 244.58,121.73 218.74,130.89 241.07,140.48 	"/>
	<polygon fill="#FFFFFF" points="328.32,131.17 304.72,121.84 278.96,131.19 302.68,140.84 	"/>
	<polygon fill="#FFFFFF" points="235.3,142.57 212.91,132.96 181.7,144.03 204.11,153.89 	"/>
	<polygon fill="#FFFFFF" points="359.44,119.44 336.02,110.48 310.67,119.68 334.16,128.97 	"/>
	<polygon fill="#FFFFFF" points="164.33,168.33 142.09,158.08 108.92,169.84 131.21,180.35 	"/>
	<polygon fill="#FFFFFF" points="198.4,155.97 175.93,146.07 147.75,156.07 169.93,166.3 	"/>
	<polygon fill="#FFFFFF" points="490.21,140.21 511.92,131.19 485.85,121.74 464.06,130.44 	"/>
	<polygon fill="#FFFFFF" points="458.2,128.26 479.91,119.59 453.76,110.12 432.23,118.56 	"/>
	<polygon fill="#FFFFFF" points="129.11,184 105.85,173.03 109.23,209.62 132.23,220.96 	"/>
	<polygon fill="#FFFFFF" points="523.94,152.81 545.84,143.47 517.77,133.3 495.97,142.36 	"/>
	<polygon fill="#FFFFFF" points="418.25,97.26 395.31,88.96 373.84,96.75 396.83,105.34 	"/>
	<polygon fill="#FFFFFF" points="426.34,116.36 447.78,107.96 424.32,99.46 402.81,107.57 	"/>
	<polygon fill="#FFFFFF" points="390.86,107.59 367.75,98.96 342.05,108.29 365.36,117.21 	"/>
	<polygon fill="#FFFFFF" points="133.84,476.21 136.49,504.85 157.42,519.22 154.98,490.26 	"/>
	<polygon fill="#FFFFFF" points="186.02,510.9 188.19,540.33 210.7,555.78 208.82,526.06 	"/>
	<polygon fill="#FFFFFF" points="159.44,493.23 161.89,522.29 183.76,537.29 181.59,507.96 	"/>
	<polygon fill="#FFFFFF" points="213.21,528.98 215.1,558.79 238.19,574.64 236.54,544.49 	"/>
	<polygon fill="#FFFFFF" points="300.37,586.93 301.43,618.03 328.86,636.85 328.33,605.52 	"/>
	<polygon fill="#FFFFFF" points="332.58,608.35 333.11,639.76 360.68,658.68 360.27,626.75 	"/>
	<polygon fill="#FFFFFF" points="240.91,547.39 242.56,577.63 267.73,594.91 266.38,564.33 	"/>
	<polygon fill="#FFFFFF" points="270.71,567.21 272.07,597.88 297.13,615.08 296.08,584.08 	"/>
	<polygon fill="#FFFFFF" points="145.95,383.37 124.04,370.11 126.81,400.06 148.5,413.59 	"/>
	<polygon fill="#FFFFFF" points="139.46,306.55 117.03,294.1 120.17,328.1 142.37,341.02 	"/>
	<polygon fill="#FFFFFF" points="142.81,346.12 120.64,333.23 123.56,364.91 145.51,378.2 	"/>
	<polygon fill="#FFFFFF" points="152.23,457.75 130.89,444.21 133.35,470.84 154.53,484.92 	"/>
	<polygon fill="#FFFFFF" points="136.12,266.95 113.4,254.85 116.56,289.04 139.04,301.51 	"/>
	<polygon fill="#FFFFFF" points="132.65,225.84 109.68,214.52 112.94,249.85 135.7,261.97 	"/>
	<polygon fill="#FFFFFF" points="148.94,418.81 127.3,405.31 130.4,438.93 151.79,452.5 	"/>
	<polygon fill="#FFFFFF" points="602.31,207.83 627.54,195.98 594.93,183.8 569.66,195.34 	"/>
	<polygon fill="#FFFFFF" points="391.17,209.46 363.35,197.52 332.39,210.39 360.23,222.65 	"/>
	<polygon fill="#FFFFFF" points="503.91,342.51 533.26,326.9 535.26,286.58 505.35,301.34 	"/>
	<polygon fill="#FFFFFF" points="504.79,253.64 534.47,239.7 501.7,226.37 472.4,239.74 	"/>
	<polygon fill="#FFFFFF" points="424.84,195.09 396.71,183.64 368.75,195.27 396.51,207.18 	"/>
	<polygon fill="#FFFFFF" points="262.17,374.66 263.81,411.67 290.74,427.34 289.46,389.8 	"/>
	<polygon fill="#FFFFFF" points="467.19,237.51 496.35,224.19 466.98,212.24 438.36,225.14 	"/>
	<polygon fill="#FFFFFF" points="433.13,222.89 461.61,210.05 430.32,197.32 401.84,209.47 	"/>
	<polygon fill="#FFFFFF" points="505.51,296.58 535.5,281.79 537.43,242.95 506.88,257.3 	"/>
	<polygon fill="#FFFFFF" points="329.25,411.89 329.9,450.13 358.2,466.59 357.69,427.67 	"/>
	<polygon fill="#FFFFFF" points="361.92,430.02 362.43,469.05 393.36,487.05 393.36,447.47 	"/>
	<polygon fill="#FFFFFF" points="293.74,392.18 295.03,429.83 325.66,447.66 325.02,409.54 	"/>
	<polygon fill="#FFFFFF" points="467.91,408.37 467.04,446.6 496.68,429.4 497.99,391.71 	"/>
	<polygon fill="#FFFFFF" points="500.96,426.92 529.1,410.59 530.94,373.46 502.28,389.34 	"/>
	<polygon fill="#FFFFFF" points="433.19,427.6 432.72,466.51 462.78,449.07 463.66,410.72 	"/>
	<polygon fill="#FFFFFF" points="397.56,447.33 397.56,486.9 428.49,468.96 428.96,429.94 	"/>
	<polygon fill="#FFFFFF" points="502.45,384.45 531.19,368.53 533.01,331.79 503.74,347.35 	"/>
	<polygon fill="#FFFFFF" points="232.78,398.47 234.61,432.14 261.23,448.25 259.72,414.15 	"/>
	<polygon fill="#FFFFFF" points="295.19,434.79 296.38,469.52 326.34,487.66 325.74,452.56 	"/>
	<polygon fill="#FFFFFF" points="466.92,451.52 466.09,487.65 495.25,470.43 496.5,434.35 	"/>
	<polygon fill="#FFFFFF" points="329.98,455.03 330.58,490.23 358.72,507.27 358.26,471.48 	"/>
	<polygon fill="#FFFFFF" points="432.66,471.39 432.22,507.65 461.84,490.16 462.67,453.98 	"/>
	<polygon fill="#FFFFFF" points="397.56,491.76 397.56,528.13 427.99,510.15 428.43,473.85 	"/>
	<polygon fill="#FFFFFF" points="362.49,473.94 362.95,509.83 393.36,528.23 393.36,491.9 	"/>
	<polygon fill="#FFFFFF" points="256.03,330.81 228.27,316.03 230.25,352.14 257.65,367.34 	"/>
	<polygon fill="#FFFFFF" points="252.09,242.02 223.5,228.53 225.6,266.97 253.81,280.87 	"/>
	<polygon fill="#FFFFFF" points="257.86,372.26 230.52,357.09 232.5,393.46 259.5,409.16 	"/>
	<polygon fill="#FFFFFF" points="319.66,239.97 291.97,227.2 259.31,240.78 287.06,253.87 	"/>
	<polygon fill="#FFFFFF" points="286.3,296.88 284.96,257.53 256.38,244.04 258.11,282.99 	"/>
	<polygon fill="#FFFFFF" points="354.94,224.91 327.03,212.62 297.24,225.01 324.86,237.75 	"/>
	<polygon fill="#FFFFFF" points="254.02,285.65 225.86,271.77 228.01,311.13 255.81,325.94 	"/>
	<polygon fill="#FFFFFF" points="264.03,416.66 265.55,450.86 292.09,466.93 290.91,432.3 	"/>
	<polygon fill="#FFFFFF" points="288.04,347.86 260.33,333.1 261.95,369.73 289.3,384.91 	"/>
	<polygon fill="#FFFFFF" points="426.12,256.26 397.39,243.6 367.13,257.24 395.41,270.28 	"/>
	<polygon fill="#FFFFFF" points="432.74,287.5 463.86,272.88 431.26,258.52 400.44,272.6 	"/>
	<polygon fill="#FFFFFF" points="390.37,272.58 362.06,259.53 329.83,274.05 358.02,287.35 	"/>
	<polygon fill="#FFFFFF" points="292.31,350.13 293.58,387.29 324.93,404.69 324.3,367.17 	"/>
	<polygon fill="#FFFFFF" points="355.93,291 326.98,277.35 327.65,317.26 356.45,331.45 	"/>
	<polygon fill="#FFFFFF" points="356.51,336.16 327.73,321.98 328.45,364.62 357.07,379.87 	"/>
	<polygon fill="#D15858" points="393.36,308.66 360.15,293 360.67,333.53 393.36,349.64 	"/>
	<polygon fill="#D15858" points="427.77,289.83 395.4,274.9 362.99,289.7 395.46,305.01 	"/>
	<polygon fill="#FFFFFF" points="328.54,369.42 329.17,407.04 357.63,422.84 357.14,384.66 	"/>
	<polygon fill="#D15858" points="397.56,349.85 430.12,333.79 430.61,293.14 397.56,308.66 	"/>
	<polygon fill="#FFFFFF" points="433.76,379.81 464.75,363.33 465.72,320.9 434.28,336.41 	"/>
	<polygon fill="#FFFFFF" points="397.56,354.53 397.56,399.06 429.54,382.05 430.06,338.49 	"/>
	<polygon fill="#FFFFFF" points="360.74,338.24 361.3,382.12 393.36,399.19 393.36,354.32 	"/>
	<polygon fill="#FFFFFF" points="434.34,331.7 465.83,316.16 466.75,276.16 434.83,291.15 	"/>
	<polygon fill="#FFFFFF" points="357.01,257.2 324.79,242.34 292.14,256.27 324.84,271.7 	"/>
	<polygon fill="#FFFFFF" points="392.22,241.33 360.21,227.23 330,240.12 362.08,254.91 	"/>
	<polygon fill="#FFFFFF" points="297.81,511.64 298.97,545.86 327.63,564.03 327.05,529.87 	"/>
	<polygon fill="#FFFFFF" points="324.22,362.37 323.5,319.89 290.73,303.75 292.15,345.29 	"/>
	<polygon fill="#FFFFFF" points="322.75,275.35 289.23,259.54 290.57,298.99 323.42,315.17 	"/>
	<polygon fill="#FFFFFF" points="286.46,301.64 258.32,287.77 260.11,328.23 287.87,343.01 	"/>
	<polygon fill="#FFFFFF" points="431.23,253.92 462.03,239.86 433.17,227.48 402.53,241.28 	"/>
	<polygon fill="#FFFFFF" points="433.7,384.59 433.24,422.77 463.77,405.86 464.64,368.14 	"/>
	<polygon fill="#FFFFFF" points="468.02,403.51 498.16,386.82 499.46,349.63 468.89,365.88 	"/>
	<polygon fill="#FFFFFF" points="361.36,386.91 361.86,425.18 393.36,442.67 393.36,403.95 	"/>
	<polygon fill="#FFFFFF" points="397.56,403.81 397.56,442.53 429.02,425.11 429.48,386.84 	"/>
	<polygon fill="#FFFFFF" points="470.08,314.07 501.24,298.69 502.61,259.31 470.99,274.16 	"/>
	<polygon fill="#FFFFFF" points="468.89,270.51 499.71,256.03 467.24,242.1 436.38,256.19 	"/>
	<polygon fill="#FFFFFF" points="469,361.07 499.63,344.78 501.07,303.45 469.97,318.8 	"/>
	<polygon fill="#FFFFFF" points="427.93,225.23 396.5,211.74 365.5,224.97 397.37,239.01 	"/>
	<polygon fill="#FFFFFF" points="497.85,193.72 523.47,182.17 493.07,170.54 467.18,181.59 	"/>
	<polygon fill="#FFFFFF" points="532.8,207.55 558.8,195.68 529,184.28 503.29,195.87 	"/>
	<polygon fill="#FFFFFF" points="461.63,179.39 487.43,168.39 459.29,157.62 433.59,168.3 	"/>
	<polygon fill="#FFFFFF" points="427.99,166.09 453.59,155.44 426.95,145.26 401.26,155.51 	"/>
	<polygon fill="#FFFFFF" points="389.89,155.53 364.02,145.3 338.35,155.36 364.09,165.83 	"/>
	<polygon fill="#FFFFFF" points="570.86,222.6 597.04,210.3 564.3,197.78 538.22,209.69 	"/>
	<polygon fill="#FFFFFF" points="421.17,143.04 395.16,133.09 369.76,143.05 395.57,153.26 	"/>
	<polygon fill="#FFFFFF" points="531.14,454.1 529.59,485.31 554.36,470.15 556.18,439.31 	"/>
	<polygon fill="#FFFFFF" points="560.83,431.69 587.1,416.18 589.38,380.47 562.95,395.81 	"/>
	<polygon fill="#FFFFFF" points="558.72,467.47 584.83,451.49 586.77,421.25 560.54,436.74 	"/>
	<polygon fill="#FFFFFF" points="358.47,168.08 332.68,157.58 305.64,168.18 330.97,179.05 	"/>
	<polygon fill="#FFFFFF" points="570.7,264.42 597.67,251.11 600.07,213.52 572.96,226.26 	"/>
	<polygon fill="#FFFFFF" points="568.11,308.37 594.91,294.12 597.36,255.94 570.42,269.24 	"/>
	<polygon fill="#FFFFFF" points="563.25,390.78 589.7,375.43 592,339.65 565.4,354.38 	"/>
	<polygon fill="#FFFFFF" points="565.69,349.42 592.32,334.68 594.6,299.04 567.82,313.28 	"/>
	<polygon fill="#FFFFFF" points="267.4,492.68 268.92,526.79 294.68,543.13 293.52,508.96 	"/>
	<polygon fill="#FFFFFF" points="500.79,431.87 499.53,467.9 527.06,451.64 528.85,415.59 	"/>
	<polygon fill="#FFFFFF" points="180.69,438.61 183.18,472.41 206.36,487.11 204.22,453.28 	"/>
	<polygon fill="#FFFFFF" points="196.96,338.46 172.29,324.77 174.88,359.93 199.21,374.09 	"/>
	<polygon fill="#FFFFFF" points="199.53,379.13 175.26,365.01 177.67,397.66 201.62,412.16 	"/>
	<polygon fill="#FFFFFF" points="499.36,472.87 498.26,504.5 525.25,487.97 526.81,456.66 	"/>
	<polygon fill="#FFFFFF" points="236.88,473.64 238.74,507.65 264.59,524.05 263.08,489.98 	"/>
	<polygon fill="#FFFFFF" points="208.6,456.01 210.74,489.89 234.38,504.89 232.53,470.93 	"/>
	<polygon fill="#FFFFFF" points="223.79,195.76 199.11,184.37 166.11,196.81 191.06,208.59 	"/>
	<polygon fill="#FFFFFF" points="258.16,182.29 233.48,171.41 204.62,182.29 229.21,193.63 	"/>
	<polygon fill="#FFFFFF" points="194.39,297.99 169.33,284.64 171.92,319.76 196.64,333.48 	"/>
	<polygon fill="#FFFFFF" points="325.45,181.25 300.08,170.36 269.09,182.51 294.39,193.66 	"/>
	<polygon fill="#FFFFFF" points="259.48,207.59 288.93,195.84 263.58,184.67 234.5,196.07 	"/>
	<polygon fill="#FFFFFF" points="191.67,254.93 166.21,242.38 168.96,279.69 194.08,293.06 	"/>
	<polygon fill="#FFFFFF" points="188.97,212.24 163.09,200.03 165.85,237.52 191.37,250.1 	"/>
	<polygon fill="#FFFFFF" points="201.94,417.26 178.05,402.8 180.3,433.42 203.89,448.13 	"/>
	<polygon fill="#FFFFFF" points="501.6,221.8 527.51,209.97 497.95,198.28 472.26,209.86 	"/>
	<polygon fill="#FFFFFF" points="430.28,192.77 456.14,181.74 428.03,170.62 402.22,181.35 	"/>
	<polygon fill="#FFFFFF" points="466.89,207.67 492.51,196.12 461.69,183.93 435.75,195 	"/>
	<polygon fill="#FFFFFF" points="422.43,168.4 395.58,157.78 369.69,168.11 396.7,179.1 	"/>
	<polygon fill="#FFFFFF" points="321.72,210.28 294.31,198.21 264.73,210.02 292.06,222.62 	"/>
	<polygon fill="#FFFFFF" points="391.19,181.39 364.07,170.36 336.43,181.39 363.38,192.96 	"/>
	<polygon fill="#FFFFFF" points="357.97,195.21 330.91,183.6 299.77,196.03 327.08,208.05 	"/>
	<polygon fill="#FFFFFF" points="533.42,408.09 558.89,393.31 561.05,356.79 535.26,371.07 	"/>
	<polygon fill="#FFFFFF" points="535.51,366.14 561.34,351.83 563.48,315.59 537.33,329.49 	"/>
	<polygon fill="#FFFFFF" points="254.18,238.37 286.79,224.81 259.36,212.16 226.47,225.29 	"/>
	<polygon fill="#FFFFFF" points="531.39,449.08 556.48,434.26 558.6,398.33 533.18,413.08 	"/>
	<polygon fill="#FFFFFF" points="539.8,279.66 566.37,266.55 568.63,228.29 541.73,240.93 	"/>
	<polygon fill="#FFFFFF" points="537.57,324.61 563.77,310.68 566.09,271.37 539.57,284.46 	"/>
	<polygon fill="#FFFFFF" points="539.64,237.27 565.65,225.05 532.92,212.11 506.95,223.97 	"/>
	<polygon fill="#FFFFFF" points="363.02,514.77 363.44,547.62 393.36,566.27 393.36,533.14 	"/>
	<polygon fill="#FFFFFF" points="330.66,495.19 331.21,527.52 359.21,544.98 358.78,512.21 	"/>
	<polygon fill="#FFFFFF" points="234.89,437.21 236.6,468.52 262.86,484.9 261.46,453.29 	"/>
	<polygon fill="#FFFFFF" points="265.77,455.9 267.18,487.59 293.35,503.91 292.26,471.94 	"/>
	<polygon fill="#FFFFFF" points="296.55,474.53 297.64,506.59 326.97,524.87 326.42,492.62 	"/>
	<polygon fill="#FFFFFF" points="432.16,512.56 431.77,545.21 460.99,527.32 461.72,495.1 	"/>
	<polygon fill="#FFFFFF" points="465.98,492.59 465.24,524.71 493.96,507.12 495.07,475.41 	"/>
	<polygon fill="#FFFFFF" points="397.56,533 397.56,566.15 427.54,547.8 427.93,515.06 	"/>
	<polygon fill="#FFFFFF" points="228.43,395.95 203.89,381.67 205.99,414.81 230.27,429.5 	"/>
	<polygon fill="#FFFFFF" points="223.95,313.72 198.75,300.3 201,335.9 225.91,349.73 	"/>
	<polygon fill="#FFFFFF" points="206.31,419.91 208.27,450.86 232.25,465.81 230.54,434.58 	"/>
	<polygon fill="#FFFFFF" points="219.18,226.49 193.3,214.29 195.71,252.24 221.28,264.84 	"/>
	<polygon fill="#FFFFFF" points="221.54,269.65 196.01,257.06 198.43,295.38 223.68,308.83 	"/>
	<polygon fill="#FFFFFF" points="226.18,354.68 201.31,340.88 203.57,376.63 228.16,390.93 	"/>
	<polygon fill="#FFFFFF" points="254.11,209.74 229.08,198.19 196.28,211.05 221.28,222.84 	"/>
	<polygon fill="#FFFFFF" points="119.58,367.41 99.35,355.16 102.61,384.97 122.34,397.27 	"/>
	<polygon fill="#FFFFFF" points="650.34,153.88 671.2,144.36 640.69,133.94 620.36,143.1 	"/>
	<polygon fill="#FFFFFF" points="188.59,545.69 190.68,574.11 212.84,589.58 211.04,561.1 	"/>
	<polygon fill="#FFFFFF" points="614.68,141.06 634.87,131.96 606.35,122.22 586.19,130.82 	"/>
	<polygon fill="#FFFFFF" points="688.18,167.49 709.53,157.45 676.98,146.34 656,155.92 	"/>
	<polygon fill="#FFFFFF" points="546.84,116.67 566.34,108.56 540.76,99.82 521.44,107.53 	"/>
	<polygon fill="#FFFFFF" points="580.39,128.73 600.4,120.19 572.34,110.61 552.7,118.77 	"/>
	<polygon fill="#FFFFFF" points="687.02,207.02 708.94,196.2 712.65,160.62 690.26,171.14 	"/>
	<polygon fill="#FFFFFF" points="515.49,105.39 534.66,97.74 508.31,88.74 489.59,96.08 	"/>
	<polygon fill="#FFFFFF" points="676.36,325.16 696.75,313.33 700.25,279.7 679.42,291.24 	"/>
	<polygon fill="#FFFFFF" points="672.71,365.61 692.53,353.91 696.22,318.5 675.9,330.28 	"/>
	<polygon fill="#FFFFFF" points="683.41,247.06 704.84,235.67 708.43,201.14 686.58,211.92 	"/>
	<polygon fill="#FFFFFF" points="679.88,286.19 700.78,274.61 704.31,240.7 682.96,252.06 	"/>
	<polygon fill="#FFFFFF" points="136.99,510.29 139.59,538.42 160.26,552.86 157.88,524.62 	"/>
	<polygon fill="#FFFFFF" points="360.24,76.25 340.1,68.96 318.77,76.19 339.06,83.77 	"/>
	<polygon fill="#FFFFFF" points="332.91,85.95 312.49,78.32 286.61,87.09 307.34,95.02 	"/>
	<polygon fill="#FFFFFF" points="105.26,212.34 82.54,201.14 86.31,235.67 108.51,247.49 	"/>
	<polygon fill="#FFFFFF" points="276.22,106.05 301.24,97.18 280.39,89.2 255.2,97.74 	"/>
	<polygon fill="#FFFFFF" points="669.64,399.56 689.01,387.7 691.99,359.1 672.24,370.76 	"/>
	<polygon fill="#FFFFFF" points="114.62,494.94 117.7,523.13 135.08,535.27 132.49,507.2 	"/>
	<polygon fill="#FFFFFF" points="162.35,527.69 164.74,555.99 186.24,571.01 184.15,542.65 	"/>
	<polygon fill="#FFFFFF" points="391.36,65.22 371.85,58.2 346.47,66.8 366.47,74.05 	"/>
	<polygon fill="#FFFFFF" points="426.19,73.28 444.06,66.8 421.34,59.04 403.84,65.25 	"/>
	<polygon fill="#FFFFFF" points="454.69,83.53 472.92,76.65 450.4,68.96 432.37,75.51 	"/>
	<polygon fill="#FFFFFF" points="414.94,56.85 395.46,50.2 378.23,56.04 397.6,63 	"/>
	<polygon fill="#FFFFFF" points="483.59,93.92 502.17,86.64 479.16,78.79 460.77,85.72 	"/>
	<polygon fill="#FFFFFF" points="270.21,108.18 249.06,99.82 223.32,108.54 244.68,117.24 	"/>
	<polygon fill="#FFFFFF" points="397.56,686.03 397.56,715.66 425.75,696.09 426.11,666.82 	"/>
	<polygon fill="#FFFFFF" points="364.98,666.72 365.36,696.09 393.36,715.65 393.36,686.19 	"/>
	<polygon fill="#FFFFFF" points="207.23,130.52 185.71,121.29 154.27,131.94 176.1,141.56 	"/>
	<polygon fill="#FFFFFF" points="170.33,143.6 148.39,133.94 120.37,143.44 142.29,153.55 	"/>
	<polygon fill="#FFFFFF" points="430.34,663.97 429.99,693.15 457.62,673.97 458.28,645.17 	"/>
	<polygon fill="#FFFFFF" points="215.44,564.11 217.24,592.65 240.04,608.58 238.48,579.92 	"/>
	<polygon fill="#FFFFFF" points="333.2,644.91 333.69,673.98 361.12,693.14 360.74,663.81 	"/>
	<polygon fill="#FFFFFF" points="242.85,582.92 244.41,611.63 269.24,628.97 267.97,600.15 	"/>
	<polygon fill="#D15858" points="136.63,155.56 114.59,145.39 81.14,156.73 103.53,167.3 	"/>
	<polygon fill="#FFFFFF" points="272.3,603.13 273.58,632 298.29,649.26 297.31,620.29 	"/>
	<polygon fill="#FFFFFF" points="301.61,623.24 302.6,652.26 329.44,671.01 328.95,642 	"/>
	<polygon fill="#FFFFFF" points="462.55,642.3 461.89,671.01 488.9,652.26 489.89,623.9 	"/>
	<polygon fill="#FFFFFF" points="663.33,469.57 681.75,457.5 684.83,427.89 666.01,439.87 	"/>
	<polygon fill="#FFFFFF" points="657.39,535.3 674.92,523.13 677.57,497.61 659.71,509.63 	"/>
	<polygon fill="#D15858" points="101.44,170.95 78.03,159.91 82,196.2 104.81,207.44 	"/>
	<polygon fill="#FFFFFF" points="660.2,504.24 678.14,492.16 681.19,462.88 662.84,474.91 	"/>
	<polygon fill="#FFFFFF" points="238.73,119.35 217.24,110.6 191.66,119.27 213.05,128.45 	"/>
	<polygon fill="#FFFFFF" points="666.48,434.59 685.38,422.56 688.47,392.96 669.17,404.77 	"/>
	<polygon fill="#FFFFFF" points="634.22,526.78 632.06,552.88 652.9,538.42 655.22,512.65 	"/>
	<polygon fill="#FFFFFF" points="523.84,601.06 522.45,628.97 545.95,612.66 547.58,585.08 	"/>
	<polygon fill="#FFFFFF" points="494.19,621.01 493.2,649.27 518.1,631.99 519.49,603.98 	"/>
	<polygon fill="#FFFFFF" points="108.97,252.49 86.86,240.72 90.56,274.61 112.12,286.57 	"/>
	<polygon fill="#FFFFFF" points="581.97,561.94 580.24,588.85 601.5,574.1 603.57,547.4 	"/>
	<polygon fill="#FFFFFF" points="551.96,582.13 550.34,609.61 575.84,591.91 577.57,564.9 	"/>
	<polygon fill="#FFFFFF" points="608.01,544.42 605.95,571.01 627.59,555.99 629.76,529.78 	"/>
	<polygon fill="#FFFFFF" points="122.82,402.52 103.19,390.28 106.87,424.01 125.92,436.09 	"/>
	<polygon fill="#FFFFFF" points="126.41,441.37 107.45,429.35 110.31,455.52 128.85,467.85 	"/>
	<polygon fill="#FFFFFF" points="116.18,330.64 95.35,318.52 98.78,349.91 119.1,362.21 	"/>
	<polygon fill="#FFFFFF" points="112.58,291.63 91.12,279.72 94.79,313.33 115.71,325.5 	"/>
	<polygon fill="#FFFFFF" points="129.35,473.22 110.91,460.96 114.02,489.44 131.98,501.77 	"/>
	<path d="M396.14,46l-0.68-0.23L280.47,84.74l-0.51-0.2l-0.16,0.42L74.87,154.42l-1.6,0.54l40.46,370.52L394.26,721.4l1.2,0.84
		l282.64-196.2l0.79-0.55l38.32-368.12l0.17-1.66L396.14,46z M709.53,157.45l-21.35,10.03L656,155.92l20.98-9.58L709.53,157.45z
		 M292.15,345.29l-1.41-41.54l32.76,16.15l0.72,42.48L292.15,345.29z M324.3,367.17l0.64,37.52l-31.36-17.4l-1.26-37.15
		L324.3,367.17z M221.54,269.65l2.14,39.18l-25.24-13.44l-2.42-38.32L221.54,269.65z M195.71,252.24l-2.4-37.95l25.88,12.21
		l2.09,38.34L195.71,252.24z M223.5,228.53l28.59,13.49l1.72,38.85l-28.22-13.91L223.5,228.53z M221.28,222.84l-25-11.79l32.8-12.86
		l25.03,11.54L221.28,222.84z M234.5,196.07l29.08-11.4l25.35,11.16l-29.45,11.76L234.5,196.07z M269.09,182.51l30.99-12.15
		l25.38,10.89l-31.06,12.4L269.09,182.51z M305.64,168.18l27.04-10.6l25.78,10.49l-27.5,10.98L305.64,168.18z M532.8,207.55
		l-29.52-11.68L529,184.28l29.8,11.4L532.8,207.55z M564.3,197.78l32.74,12.52l-26.18,12.3l-32.64-12.91L564.3,197.78z
		 M497.85,193.72l-30.67-12.13l25.89-11.05l30.4,11.63L497.85,193.72z M461.63,179.39l-28.04-11.09l25.69-10.68l28.15,10.77
		L461.63,179.39z M427.99,166.09l-26.73-10.58l25.69-10.26l26.64,10.19L427.99,166.09z M395.57,153.26l-25.82-10.21l25.4-9.96
		l26.01,9.95L395.57,153.26z M389.89,155.53l-25.81,10.3l-25.73-10.47l25.67-10.06L389.89,155.53z M364.07,170.36l27.12,11.04
		l-27.81,11.57l-26.95-11.56L364.07,170.36z M369.69,168.11l25.89-10.33l26.85,10.62l-25.73,10.7L369.69,168.11z M428.03,170.62
		l28.11,11.12l-25.86,11.03l-28.06-11.42L428.03,170.62z M461.69,183.93l30.82,12.19l-25.62,11.55L435.75,195L461.69,183.93z
		 M497.95,198.28l29.55,11.69L501.6,221.8l-29.34-11.94L497.95,198.28z M532.92,212.11l32.72,12.94l-26.01,12.22l-32.69-13.3
		L532.92,212.11z M539.57,284.46l26.52-13.09l-2.32,39.31l-26.2,13.93L539.57,284.46z M539.8,279.66l1.92-38.73l26.9-12.64
		l-2.26,38.26L539.8,279.66z M570.42,269.24l26.94-13.29l-2.44,38.18l-26.8,14.25L570.42,269.24z M570.7,264.42l2.25-38.16
		l27.12-12.74l-2.41,37.6L570.7,264.42z M569.66,195.34l25.27-11.54l32.61,12.18l-25.22,11.85L569.66,195.34z M564.16,193.23
		l-29.76-11.38l25.07-11.3l29.91,11.17L564.16,193.23z M528.87,179.74l-30.24-11.57l25.42-10.84l29.83,11.14L528.87,179.74z
		 M492.99,166.02l-28.07-10.74l25.38-10.55l28.05,10.47L492.99,166.02z M459.22,153.1l-26.52-10.14l25.55-10.2l26.28,9.81
		L459.22,153.1z M426.92,140.75l-25.96-9.93l25.42-9.96l26.03,9.72L426.92,140.75z M395.14,128.59l-23.87-9.13l25.57-9.64
		l23.65,8.83L395.14,128.59z M389.34,130.87l-25.3,9.92l-24.07-9.52l25.39-9.57L389.34,130.87z M358.3,143.03l-25.59,10.03
		l-24.32-9.9l25.73-9.7L358.3,143.03z M327.04,155.29l-26.89,10.54l-24.25-10.41l26.72-10.07L327.04,155.29z M294.59,168.01
		l-30.91,12.12l-24.58-10.83l31.14-11.74L294.59,168.01z M258.16,182.29l-28.95,11.35l-24.59-11.34l28.85-10.88L258.16,182.29z
		 M223.79,195.76l-32.73,12.83l-24.96-11.77l33-12.44L223.79,195.76z M188.97,212.24l2.39,37.86l-25.51-12.57l-2.77-37.49
		L188.97,212.24z M191.67,254.93l2.41,38.14l-25.12-13.38l-2.75-37.31L191.67,254.93z M194.39,297.99l2.25,35.5l-24.72-13.72
		l-2.59-35.13L194.39,297.99z M196.96,338.46l2.25,35.63l-24.33-14.15l-2.59-35.16L196.96,338.46z M198.75,300.3l25.2,13.42
		l1.97,36.01L201,335.9L198.75,300.3z M226.18,354.68l1.98,36.25l-24.59-14.3l-2.26-35.75L226.18,354.68z M228.01,311.13
		l-2.15-39.36l28.17,13.88l1.79,40.28L228.01,311.13z M254.18,238.37l-27.72-13.07l32.89-13.13l27.43,12.65L254.18,238.37z
		 M264.73,210.02l29.58-11.81l27.41,12.07l-29.67,12.34L264.73,210.02z M299.77,196.03l31.14-12.43l27.06,11.61l-30.89,12.85
		L299.77,196.03z M363.35,197.52l27.82,11.94l-30.94,13.2l-27.85-12.26L363.35,197.52z M368.75,195.27l27.96-11.63l28.13,11.45
		l-28.33,12.09L368.75,195.27z M430.32,197.32l31.29,12.74l-28.48,12.84l-31.28-13.42L430.32,197.32z M466.98,212.24l29.37,11.95
		l-29.16,13.32l-28.83-12.37L466.98,212.24z M501.7,226.37l32.77,13.34l-29.67,13.94l-32.39-13.9L501.7,226.37z M506.88,257.3
		l30.54-14.35l-1.93,38.84l-29.98,14.8L506.88,257.3z M537.33,329.49l26.15-13.91l-2.14,36.24l-25.83,14.31L537.33,329.49z
		 M565.4,354.38l26.6-14.73l-2.29,35.78l-26.46,15.35L565.4,354.38z M565.69,349.42l2.13-36.14l26.78-14.24l-2.28,35.64
		L565.69,349.42z M596.36,337.24l24.56-13.6l-2.74,35.28l-24.11,13.99L596.36,337.24z M596.68,332.26l2.28-35.54l25.09-13.34
		l-2.73,35.24L596.68,332.26z M599.27,291.8l2.43-38l25.61-12.64l-2.89,37.27L599.27,291.8z M602.01,248.97l2.4-37.49l26.16-12.29
		l-2.88,37.11L602.01,248.97z M600.33,181.33l22.15-10.11l32.61,11.81l-22.24,10.45L600.33,181.33z M594.77,179.26L564.9,168.1
		l21.82-9.83l30.13,10.91L594.77,179.26z M559.31,166.02l-29.66-11.08l21.98-9.38l29.43,10.66L559.31,166.02z M523.94,152.81
		l-27.97-10.45l21.79-9.06l28.07,10.17L523.94,152.81z M490.21,140.21l-26.16-9.77l21.8-8.7l26.07,9.44L490.21,140.21z
		 M458.2,128.26l-25.97-9.7l21.53-8.44l26.15,9.47L458.2,128.26z M426.34,116.36l-23.53-8.79l21.51-8.11l23.46,8.5L426.34,116.36z
		 M396.83,105.34l-23-8.59l21.48-7.8l22.94,8.31L396.83,105.34z M390.86,107.59l-25.5,9.61l-23.31-8.92l25.7-9.33L390.86,107.59z
		 M359.44,119.44l-25.29,9.53l-23.49-9.29l25.35-9.2L359.44,119.44z M328.32,131.17l-25.64,9.67l-23.71-9.65l25.76-9.35
		L328.32,131.17z M296.9,143.02l-26.56,10.01l-23.62-10.14l26.37-9.57L296.9,143.02z M264.67,155.17l-31.07,11.71l-23.94-10.54
		l31.28-11.35L264.67,155.17z M227.99,169l-28.72,10.83l-23.92-11.03l28.6-10.38L227.99,169z M193.76,181.9l-32.93,12.42
		l-24.26-11.45l33.19-12.05L193.76,181.9z M158.73,197.97l2.76,37.4l-24.85-12.25l-3.13-37.05L158.73,197.97z M161.84,240.23
		l2.74,37.13l-24.47-13.03l-3.07-36.32L161.84,240.23z M164.95,282.3l2.58,35.02l-24.07-13.36l-2.93-34.67L164.95,282.3z
		 M167.9,322.33l2.58,35.04l-23.68-13.78L143.88,309L167.9,322.33z M170.86,362.45l2.4,32.55l-23.31-14.11l-2.72-32.18
		L170.86,362.45z M173.64,400.13l2.25,30.54l-22.94-14.31l-2.56-30.31L173.64,400.13z M175.26,365.01l24.27,14.12l2.09,33.03
		l-23.95-14.5L175.26,365.01z M201.94,417.26l1.95,30.87l-23.59-14.71l-2.26-30.62L201.94,417.26z M203.89,381.67l24.54,14.28
		l1.83,33.56l-24.28-14.7L203.89,381.67z M230.25,352.14l-1.97-36.11l27.75,14.78l1.62,36.53L230.25,352.14z M256.38,244.04
		l28.58,13.48l1.34,39.36l-28.2-13.89L256.38,244.04z M257.86,372.26l1.64,36.9l-27-15.71l-1.99-36.37L257.86,372.26z
		 M258.32,287.77l28.15,13.87l1.41,41.37l-27.76-14.78L258.32,287.77z M288.04,347.86l1.26,37.06l-27.35-15.18l-1.62-36.63
		L288.04,347.86z M289.46,389.8l1.28,37.54l-26.93-15.67l-1.64-37.02L289.46,389.8z M290.57,298.99l-1.34-39.45l33.51,15.81
		l0.67,39.82L290.57,298.99z M287.06,253.87l-27.75-13.09l32.66-13.58l27.69,12.77L287.06,253.87z M297.24,225.01l29.79-12.39
		l27.91,12.29l-30.08,12.83L297.24,225.01z M360.21,227.23l32.01,14.1l-30.14,13.58L330,240.12L360.21,227.23z M365.5,224.97
		l31.01-13.23l31.43,13.49l-30.57,13.78L365.5,224.97z M433.17,227.48l28.86,12.39l-30.8,14.06l-28.7-12.64L433.17,227.48z
		 M467.24,242.1l32.47,13.93l-30.82,14.48l-32.52-14.32L467.24,242.1z M502.61,259.31l-1.37,39.39l-31.16,15.38l0.92-39.91
		L502.61,259.31z M468.89,365.88l30.57-16.26l-1.3,37.19l-30.14,16.69L468.89,365.88z M469,361.07l0.97-42.27l31.11-15.35
		l-1.44,41.33L469,361.07z M502.28,389.34l28.67-15.88l-1.84,37.13l-28.13,16.32L502.28,389.34z M502.45,384.45l1.29-37.09
		l29.27-15.56l-1.83,36.74L502.45,384.45z M503.91,342.51l1.44-41.16l29.91-14.76l-2,40.32L503.91,342.51z M535.26,371.07
		l25.79-14.28l-2.15,36.52l-25.47,14.78L535.26,371.07z M562.95,395.81l26.43-15.33l-2.29,35.71l-26.26,15.51L562.95,395.81z
		 M591.14,418.66l23.48-13.87l-2.32,29.87l-23.1,14.14L591.14,418.66z M591.47,413.6l2.28-35.66l24.04-13.95l-2.77,35.69
		L591.47,413.6z M619.04,402.19l22.36-13.21l-2.43,29.36l-22.24,13.62L619.04,402.19z M619.43,397.08l2.76-35.64l22.56-13.09
		l-2.94,35.51L619.43,397.08z M622.59,356.36l2.73-35.16l22.73-12.59l-2.86,34.64L622.59,356.36z M625.71,316.19l2.72-35.13
		l22.9-12.18l-2.87,34.71L625.71,316.19z M628.82,276.09l2.88-37.09l23.05-11.37l-3,36.27L628.82,276.09z M632.07,234.14l2.87-37
		l23.23-10.91l-3.02,36.53L632.07,234.14z M627.93,168.73l22.6-10.32l32.26,11.6l-22.34,10.5L627.93,168.73z M622.29,166.69
		l-30.09-10.9l22.65-10.21l30.02,10.79L622.29,166.69z M586.54,153.74l-29.26-10.6l23.23-9.91l28.66,10.31L586.54,153.74z
		 M551.5,141.05l-27.99-10.14l23.44-9.75l27.76,9.98L551.5,141.05z M517.66,128.8l-25.95-9.4l23.85-9.52l25.52,9.18L517.66,128.8z
		 M485.78,117.25l-26.1-9.45l23.97-9.4l25.96,9.33L485.78,117.25z M453.7,105.64l-23.34-8.45L454.72,88l22.93,8.25L453.7,105.64z
		 M424.29,94.99l-22.82-8.27l24.73-8.98l22.43,8.07L424.29,94.99z M395.31,84.49l-22.63-8.2l24.91-8.84l22.43,8.06L395.31,84.49z
		 M389.16,86.73l-21.38,7.76l-22.6-8.44l21.27-7.55L389.16,86.73z M361.69,96.7l-25.63,9.3l-22.68-8.67l25.64-9.09L361.69,96.7z
		 M330.03,108.19l-25.24,9.16l-22.63-8.95l25.13-8.91L330.03,108.19z M298.84,119.51l-25.67,9.32l-22.63-9.21l25.61-9.08
		L298.84,119.51z M267.28,130.96l-26.21,9.51l-22.33-9.58l25.84-9.17L267.28,130.96z M235.3,142.57l-31.2,11.32l-22.4-9.87
		l31.2-11.07L235.3,142.57z M198.4,155.97l-28.46,10.33l-22.18-10.23l28.18-9.99L198.4,155.97z M164.33,168.33l-33.12,12.02
		l-22.29-10.51l33.17-11.76L164.33,168.33z M129.11,184l3.12,36.95l-23.01-11.34l-3.38-36.59L129.11,184z M132.65,225.84l3.05,36.13
		l-22.76-12.12l-3.26-35.33L132.65,225.84z M136.12,266.95l2.92,34.56l-22.48-12.48l-3.16-34.18L136.12,266.95z M139.46,306.55
		l2.91,34.47l-22.21-12.92l-3.14-34L139.46,306.55z M142.81,346.12l2.71,32.07l-21.95-13.29l-2.93-31.68L142.81,346.12z
		 M145.95,383.37l2.55,30.22l-21.69-13.53l-2.77-29.96L145.95,383.37z M148.94,418.81l2.84,33.69l-21.39-13.57l-3.1-33.62
		L148.94,418.81z M152.23,457.75l2.29,27.17l-21.18-14.08l-2.46-26.62L152.23,457.75z M153.39,421.58l22.89,14.27l2.49,33.75
		l-22.53-14.29L153.39,421.58z M179.15,474.82l2.05,27.83l-22.21-14.77l-2.31-27.31L179.15,474.82z M180.69,438.61l23.53,14.67
		l2.14,33.83l-23.18-14.7L180.69,438.61z M206.69,492.29l1.8,28.51l-22.86-15.2l-2.06-27.97L206.69,492.29z M208.27,450.86
		l-1.96-30.95l24.23,14.67l1.71,31.23L208.27,450.86z M232.53,470.93l1.85,33.95l-23.64-15l-2.14-33.88L232.53,470.93z
		 M232.78,398.47l26.94,15.68l1.51,34.1l-26.62-16.11L232.78,398.47z M261.46,453.29l1.4,31.61l-26.26-16.37l-1.71-31.31
		L261.46,453.29z M263.08,489.98l1.51,34.06l-25.86-16.4l-1.86-34L263.08,489.98z M264.03,416.66l26.88,15.64l1.18,34.63
		l-26.54-16.07L264.03,416.66z M292.26,471.94l1.09,31.97l-26.17-16.32l-1.4-31.69L292.26,471.94z M293.52,508.96l1.16,34.17
		l-25.77-16.34l-1.51-34.11L293.52,508.96z M293.74,392.18l31.27,17.36l0.65,38.12l-30.64-17.82L293.74,392.18z M325.74,452.56
		l0.59,35.1l-29.96-18.14l-1.18-34.74L325.74,452.56z M326.42,492.62l0.55,32.26l-29.33-18.29l-1.09-32.05L326.42,492.62z
		 M324.84,271.7l-32.7-15.43l32.66-13.93l32.22,14.86L324.84,271.7z M356.51,336.16l0.56,43.71l-28.62-15.24l-0.72-42.65
		L356.51,336.16z M327.65,317.26l-0.68-39.91L355.93,291l0.52,40.45L327.65,317.26z M357.14,384.66l0.49,38.18l-28.46-15.79
		l-0.64-37.62L357.14,384.66z M329.83,274.05l32.23-14.53l28.31,13.06l-32.35,14.77L329.83,274.05z M367.13,257.24l30.26-13.64
		l28.73,12.65l-30.71,14.02L367.13,257.24z M431.26,258.52l32.59,14.35l-31.12,14.62l-32.3-14.9L431.26,258.52z M466.75,276.16
		l-0.92,40.01l-31.49,15.54l0.49-40.55L466.75,276.16z M433.19,427.6l30.47-16.88l-0.88,38.34l-30.06,17.44L433.19,427.6z
		 M433.24,422.77l0.46-38.18l30.93-16.45l-0.87,37.72L433.24,422.77z M433.76,379.81l0.52-43.4l31.44-15.51l-0.97,42.43
		L433.76,379.81z M465.98,492.59l29.09-17.18l-1.11,31.72l-28.72,17.58L465.98,492.59z M466.09,487.65l0.83-36.13l29.58-17.16
		l-1.26,36.08L466.09,487.65z M467.04,446.6l0.88-38.23l30.08-16.66l-1.32,37.69L467.04,446.6z M498.08,509.53L525,493.04
		l-1.62,32.61l-26.45,16.83L498.08,509.53z M498.26,504.5l1.1-31.62l27.45-16.21l-1.56,31.31L498.26,504.5z M499.53,467.9
		l1.26-36.03l28.06-16.28l-1.79,36.05L499.53,467.9z M529.33,490.39l24.72-15.14l-1.89,32.08l-24.45,15.56L529.33,490.39z
		 M529.59,485.31l1.55-31.21l25.04-14.79l-1.82,30.83L529.59,485.31z M531.39,449.08l1.79-36l25.42-14.75l-2.12,35.93L531.39,449.08
		z M558.42,472.58l26.08-15.97l-2.01,31.43l-25.96,16.52L558.42,472.58z M558.72,467.47l1.81-30.73l26.23-15.5l-1.94,30.24
		L558.72,467.47z M586.55,490.43l22.55-14.35l-2.37,30.58l-22.15,14.52L586.55,490.43z M586.88,485.25l2.01-31.32l23.03-14.1
		l-2.41,31.02L586.88,485.25z M613.53,473.26l22.07-14.04l-2.49,30.16l-21.94,14.38L613.53,473.26z M613.93,468.03l2.4-30.91
		l22.22-13.6l-2.52,30.45L613.93,468.03z M640.04,456.39l21.5-13.68l-2.69,29.79l-21.29,13.96L640.04,456.39z M640.47,451.14
		l2.51-30.34l21.73-13.31l-2.7,29.94L640.47,451.14z M643.41,415.62l2.42-29.26l21.96-12.97l-2.61,28.9L643.41,415.62z
		 M646.25,381.24l2.93-35.46l22.26-12.92l-3.19,35.38L646.25,381.24z M649.61,340.68l2.85-34.52l22.52-12.47l-3.07,34.05
		L649.61,340.68z M652.88,301.14l2.86-34.61l22.79-12.12l-3.09,34.23L652.88,301.14z M656.15,261.56l2.99-36.1l23.04-11.37
		l-3.19,35.32L656.15,261.56z M659.54,220.58l3.01-36.42l23.31-10.95l-3.25,35.99L659.54,220.58z M671.2,144.36l-20.85,9.52
		l-29.98-10.78l20.32-9.16L671.2,144.36z M634.87,131.96l-20.19,9.1l-28.49-10.24l20.15-8.6L634.87,131.96z M600.4,120.19
		l-20.02,8.54l-27.68-9.95l19.64-8.17L600.4,120.19z M566.34,108.56l-19.5,8.11l-25.4-9.13l19.32-7.71L566.34,108.56z M534.66,97.74
		l-19.17,7.65l-25.9-9.31l18.72-7.34L534.66,97.74z M502.17,86.64l-18.58,7.28l-22.81-8.2l18.39-6.93L502.17,86.64z M472.92,76.65
		l-18.24,6.88l-22.31-8.02l18.03-6.54L472.92,76.65z M444.06,66.8l-17.87,6.49l-22.35-8.04l17.5-6.21L444.06,66.8z M395.46,50.2
		l19.48,6.65L397.6,63l-19.37-6.97L395.46,50.2z M371.85,58.2l19.51,7.02l-24.89,8.83l-20-7.24L371.85,58.2z M340.1,68.96
		l20.14,7.29l-21.18,7.51l-20.29-7.58L340.1,68.96z M312.49,78.32l20.42,7.63l-25.57,9.07l-20.72-7.93L312.49,78.32z M280.39,89.2
		l20.86,7.98l-25.02,8.87l-21.02-8.32L280.39,89.2z M249.06,99.82l21.15,8.37l-25.52,9.05l-21.36-8.69L249.06,99.82z M217.24,110.6
		l21.49,8.75l-25.68,9.11l-21.4-9.18L217.24,110.6z M185.71,121.29l21.51,9.23l-31.12,11.04l-21.83-9.61L185.71,121.29z
		 M148.39,133.94l21.95,9.67l-28.04,9.94l-21.93-10.11L148.39,133.94z M114.59,145.39l22.04,10.16l-33.1,11.74l-22.39-10.56
		L114.59,145.39z M78.03,159.91l23.41,11.04l3.37,36.49L82,196.2L78.03,159.91z M82.54,201.14l22.72,11.2l3.25,35.15l-22.2-11.82
		L82.54,201.14z M86.86,240.72l22.11,11.78l3.15,34.08l-21.56-11.96L86.86,240.72z M91.12,279.72l21.47,11.91l3.13,33.87
		l-20.92-12.17L91.12,279.72z M95.35,318.52l20.83,12.12l2.92,31.57l-20.32-12.3L95.35,318.52z M99.35,355.16l20.22,12.24
		l2.76,29.87l-19.73-12.3L99.35,355.16z M103.19,390.28l19.63,12.24l3.1,33.57l-19.05-12.08L103.19,390.28z M107.45,429.35
		l18.95,12.02l2.44,26.48l-18.54-12.33L107.45,429.35z M110.91,460.96l18.44,12.26l2.64,28.55l-17.97-12.33L110.91,460.96z
		 M117.7,523.13l-3.08-28.2l17.87,12.26l2.59,28.08L117.7,523.13z M133.84,476.21l21.14,14.05l2.45,28.96l-20.94-14.36
		L133.84,476.21z M139.59,538.42l-2.6-28.14l20.89,14.33l2.39,28.24L139.59,538.42z M159.44,493.23l22.15,14.73l2.16,29.33
		l-21.86-15L159.44,493.23z M164.74,555.99l-2.39-28.3l21.8,14.96l2.09,28.36L164.74,555.99z M186.02,510.9l22.8,15.16l1.88,29.71
		l-22.51-15.45L186.02,510.9z M190.68,574.11l-2.1-28.42l22.45,15.41l1.8,28.49L190.68,574.11z M211.07,495.07l23.6,14.97l1.6,29.23
		l-23.38-15.54L211.07,495.07z M213.21,528.98l23.33,15.51l1.65,30.14l-23.09-15.84L213.21,528.98z M217.24,592.65l-1.81-28.54
		l23.04,15.81l1.56,28.66L217.24,592.65z M239.02,512.8l25.8,16.37l1.33,29.97l-25.53-16.97L239.02,512.8z M240.91,547.39
		l25.47,16.94l1.36,30.58l-25.18-17.27L240.91,547.39z M244.41,611.63l-1.57-28.71l25.12,17.24l1.28,28.82L244.41,611.63z
		 M269.14,531.9l25.71,16.31l1.05,30.7l-25.42-16.9L269.14,531.9z M270.71,567.21l25.37,16.87l1.06,31l-25.06-17.2L270.71,567.21z
		 M273.58,632l-1.28-28.87l25.01,17.16l0.99,28.97L273.58,632z M297.81,511.64l29.24,18.23l0.58,34.16l-28.66-18.18L297.81,511.64z
		 M299.15,550.94l28.57,18.12l0.53,31.37l-28.05-18.65L299.15,550.94z M300.37,586.93l27.96,18.59l0.53,31.32l-27.43-18.82
		L300.37,586.93z M302.6,652.26l-0.99-29.03L328.95,642l0.49,29.01L302.6,652.26z M329.25,411.89l28.44,15.78l0.5,38.92
		l-28.29-16.46L329.25,411.89z M329.98,455.03l28.27,16.45l0.46,35.79l-28.14-17.04L329.98,455.03z M330.66,495.19l28.12,17.02
		l0.42,32.77l-28-17.46L330.66,495.19z M331.3,532.52l27.98,17.45l0.44,34.42l-27.84-17.66L331.3,532.52z M331.96,571.75
		l27.82,17.65l0.42,32.27l-27.71-18.42L331.96,571.75z M332.58,608.35l27.69,18.41l0.41,31.92l-27.57-18.91L332.58,608.35z
		 M333.69,673.98l-0.49-29.07l27.55,18.9l0.38,29.32L333.69,673.98z M393.36,715.65l-28-19.56l-0.38-29.38l28.38,19.47V715.65z
		 M393.36,681.1l-28.45-19.52l-0.41-32.01l28.86,19.19V681.1z M393.36,643.72l-28.93-19.23l-0.42-32.4l29.35,18.61V643.72z
		 M393.36,605.72l-29.41-18.65l-0.45-34.46l29.86,18.62V605.72z M393.36,566.27l-29.92-18.66l-0.42-32.85l30.34,18.37V566.27z
		 M393.36,528.23l-30.41-18.41l-0.46-35.89l30.87,17.96V528.23z M393.36,487.05l-30.94-18l-0.5-39.03l31.44,17.45V487.05z
		 M393.36,442.67l-31.5-17.48l-0.49-38.28l32,17.04V442.67z M393.36,399.19l-32.06-17.07l-0.57-43.88l32.63,16.08V399.19z
		 M393.36,349.64l-32.69-16.11L360.15,293l33.21,15.67V349.64z M362.99,289.7l32.41-14.8l32.37,14.93l-32.31,15.18L362.99,289.7z
		 M430.61,293.14l-0.49,40.65l-32.56,16.07v-41.19L430.61,293.14z M425.75,696.09l-28.2,19.57v-29.63l28.55-19.21L425.75,696.09z
		 M426.17,661.72l-28.61,19.25v-32.2l28.99-19L426.17,661.72z M426.61,624.71l-29.06,19.04v-33.06l29.45-18.74L426.61,624.71z
		 M427.07,586.94l-29.51,18.78v-34.64l29.92-18.32L427.07,586.94z M427.54,547.8l-29.98,18.36V533l30.38-17.94L427.54,547.8z
		 M427.99,510.15l-30.44,17.98v-36.37l30.87-17.91L427.99,510.15z M428.49,468.96l-30.93,17.94v-39.58l31.4-17.39L428.49,468.96z
		 M429.02,425.11l-31.46,17.42v-38.72l31.92-16.97L429.02,425.11z M397.56,399.06v-44.53l32.5-16.04l-0.52,43.56L397.56,399.06z
		 M457.62,673.97l-27.64,19.18l0.35-29.18l27.94-18.8L457.62,673.97z M458.4,640.03l-28,18.84l0.38-31.88l28.34-18.57L458.4,640.03z
		 M459.24,603.32l-28.4,18.61l0.39-32.68l28.75-18.29L459.24,603.32z M460.1,565.92l-28.8,18.33l0.41-34.08l29.16-17.86
		L460.1,565.92z M460.99,527.32l-29.22,17.89l0.39-32.64l29.56-17.46L460.99,527.32z M432.22,507.65l0.44-36.26l30.01-17.41
		l-0.83,36.18L432.22,507.65z M488.9,652.26l-27.01,18.75l0.66-28.71l27.34-18.4L488.9,652.26z M490.07,618.72l-27.4,18.44
		l0.72-31.53l27.77-18.2L490.07,618.72z M491.34,582.28l-27.84,18.24l0.74-32.27l28.21-17.95L491.34,582.28z M464.36,563.21
		l0.77-33.51l28.66-17.55l-1.15,33.06L464.36,563.21z M518.1,631.99l-24.9,17.28l0.99-28.27l25.3-17.02L518.1,631.99z
		 M519.75,598.75l-25.38,17.08l1.09-31.22l25.83-16.93L519.75,598.75z M495.64,579.47l1.11-31.9l26.37-16.78l-1.57,31.7
		L495.64,579.47z M545.95,612.66l-23.5,16.31l1.39-27.91l23.74-15.98L545.95,612.66z M547.89,579.81l-23.79,16.01l1.54-30.99
		l24.07-15.77L547.89,579.81z M525.89,559.64l1.57-31.61l24.4-15.52l-1.85,31.33L525.89,559.64z M575.84,591.91l-25.5,17.7
		l1.62-27.48l25.61-17.24L575.84,591.91z M577.91,559.61l-25.64,17.25l1.81-30.68l25.77-16.89L577.91,559.61z M554.39,540.97
		l1.84-31.24l25.93-16.5l-1.97,30.84L554.39,540.97z M601.5,574.1l-21.25,14.75l1.72-26.91l21.6-14.54L601.5,574.1z M582.3,556.65
		l1.94-30.23l22.08-14.47l-2.34,30.11L582.3,556.65z M627.59,555.99l-21.64,15.02l2.06-26.59l21.75-14.64L627.59,555.99z
		 M608.42,539.08l2.33-30.03l21.91-14.36l-2.46,29.73L608.42,539.08z M652.9,538.42l-20.84,14.46l2.16-26.1l21-14.13L652.9,538.42z
		 M634.66,521.42l2.45-29.65l21.25-13.93l-2.66,29.42L634.66,521.42z M674.92,523.13l-17.52,12.16l2.32-25.67l17.86-12.02
		L674.92,523.13z M678.14,492.16l-17.94,12.07l2.65-29.33l18.34-12.02L678.14,492.16z M681.75,457.5l-18.42,12.07l2.68-29.7
		l18.82-11.98L681.75,457.5z M685.38,422.56l-18.9,12.03l2.69-29.82l19.29-11.81L685.38,422.56z M689.01,387.7l-19.37,11.86
		l2.6-28.8l19.75-11.66L689.01,387.7z M692.53,353.91l-19.82,11.71l3.19-35.33l20.32-11.79L692.53,353.91z M696.75,313.33
		l-20.39,11.83l3.06-33.93l20.83-11.54L696.75,313.33z M700.78,274.61l-20.91,11.58l3.08-34.13l21.35-11.35L700.78,274.61z
		 M704.84,235.67l-21.43,11.39l3.17-35.15l21.85-10.78L704.84,235.67z M708.94,196.2l-21.92,10.82l3.24-35.88l22.38-10.52
		L708.94,196.2z"/>
</g>
</svg>
