<?xml version="1.0" encoding="UTF-8" standalone="no" ?>
<!DOCTYPE svg PUBLIC "-//W3C//DTD SVG 1.1//EN" "http://www.w3.org/Graphics/SVG/1.1/DTD/svg11.dtd">
<svg xmlns="http://www.w3.org/2000/svg" xmlns:xlink="http://www.w3.org/1999/xlink" version="1.1" width="1080" height="1080" viewBox="0 0 1080 1080" xml:space="preserve">
<desc>Created with Fabric.js 5.2.4</desc>
<defs>
</defs>
<g transform="matrix(1 0 0 1 540 540)" id="6f226c7a-cae4-4ecb-80d1-1c8e18572243"  >
<rect style="stroke: none; stroke-width: 1; stroke-dasharray: none; stroke-linecap: butt; stroke-dashoffset: 0; stroke-linejoin: miter; stroke-miterlimit: 4; fill: rgb(255,255,255); fill-rule: nonzero; opacity: 1; visibility: hidden;" vector-effect="non-scaling-stroke"  x="-540" y="-540" rx="0" ry="0" width="1080" height="1080" />
</g>
<g transform="matrix(1 0 0 1 540 540)" id="d5016d47-cc56-4c52-bc58-897d50e1b15f"  >
</g>
<g transform="matrix(2.3 0 0 2.3 545 564.14)"  >
<g style="" vector-effect="non-scaling-stroke"   >
		<g transform="matrix(1 0 0 1 0 0)"  >
<rect style="stroke: none; stroke-width: 1; stroke-dasharray: none; stroke-linecap: butt; stroke-dashoffset: 0; stroke-linejoin: miter; stroke-miterlimit: 4; fill: rgb(255,255,255); fill-rule: nonzero; opacity: 1; visibility: hidden;" vector-effect="non-scaling-stroke"  x="-540" y="-540" rx="0" ry="0" width="1080" height="1080" />
</g>
		<g transform="matrix(1 0 0 1 43.9 44.85)"  >
<radialGradient id="SVGID_SVGID_XMLID_13__3_3" gradientUnits="userSpaceOnUse" gradientTransform="matrix(1.63 -0.37 0 1 -461.72 -195.64)"  cx="244.3027" cy="214.1787" r="149.9758" fx="244.3027" fy="214.1787">
<stop offset="0%" style="stop-color:rgb(244,255,243);stop-opacity: 1"/>
<stop offset="100%" style="stop-color:rgb(94,191,83);stop-opacity: 1"/>
</radialGradient>
<polygon style="stroke: none; stroke-width: 1; stroke-dasharray: none; stroke-linecap: butt; stroke-dashoffset: 0; stroke-linejoin: miter; stroke-miterlimit: 4; fill: url(#SVGID_SVGID_XMLID_13__3_3); fill-rule: nonzero; opacity: 0.7;" vector-effect="non-scaling-stroke"  points="-46.1,-43.55 46.1,-98.25 46.1,43.55 -46.1,98.25 " />
</g>
		<g transform="matrix(1 0 0 1 -27 -26.05)"  >
<radialGradient id="SVGID_SVGID_XMLID_14__4_4" gradientUnits="userSpaceOnUse" gradientTransform="matrix(1 0 0 1 -216.7 -217.65)"  cx="292.0811" cy="268.2959" r="142.2392" fx="292.0811" fy="268.2959">
<stop offset="0%" style="stop-color:rgb(255,238,222);stop-opacity: 1"/>
<stop offset="100%" style="stop-color:rgb(255,142,82);stop-opacity: 1"/>
</radialGradient>
<polygon style="stroke: none; stroke-width: 1; stroke-dasharray: none; stroke-linecap: butt; stroke-dashoffset: 0; stroke-linejoin: miter; stroke-miterlimit: 4; fill: url(#SVGID_SVGID_XMLID_14__4_4); fill-rule: nonzero; opacity: 0.7;" vector-effect="non-scaling-stroke"  points="-24.7,-27.35 117,-27.35 24.8,27.35 -117,27.35 " />
</g>
		<g transform="matrix(1 0 0 1 43.9 -96.9)"  >
<radialGradient id="SVGID_SVGID_XMLID_15__5_5" gradientUnits="userSpaceOnUse" gradientTransform="matrix(1.63 -0.37 0 1 -461.72 -53.89)"  cx="244.3027" cy="214.1777" r="149.9765" fx="244.3027" fy="214.1777">
<stop offset="0%" style="stop-color:rgb(244,255,243);stop-opacity: 1"/>
<stop offset="100%" style="stop-color:rgb(94,191,83);stop-opacity: 1"/>
</radialGradient>
<polygon style="stroke: none; stroke-width: 1; stroke-dasharray: none; stroke-linecap: butt; stroke-dashoffset: 0; stroke-linejoin: miter; stroke-miterlimit: 4; fill: url(#SVGID_SVGID_XMLID_15__5_5); fill-rule: nonzero; opacity: 0.7;" vector-effect="non-scaling-stroke"  points="-46.1,-43.5 46.1,-98.2 46.1,43.5 -46.1,98.2 " />
</g>
		<g transform="matrix(1 0 0 1 114.8 -26.05)"  >
<radialGradient id="SVGID_SVGID_XMLID_14__6_6" gradientUnits="userSpaceOnUse" gradientTransform="matrix(1 0 0 1 -358.5 -217.65)"  cx="292.0811" cy="268.2959" r="142.2392" fx="292.0811" fy="268.2959">
<stop offset="0%" style="stop-color:rgb(255,238,222);stop-opacity: 1"/>
<stop offset="100%" style="stop-color:rgb(255,142,82);stop-opacity: 1"/>
</radialGradient>
<polygon style="stroke: none; stroke-width: 1; stroke-dasharray: none; stroke-linecap: butt; stroke-dashoffset: 0; stroke-linejoin: miter; stroke-miterlimit: 4; fill: url(#SVGID_SVGID_XMLID_14__6_6); fill-rule: nonzero; opacity: 0.7;" vector-effect="non-scaling-stroke"  points="-24.8,-27.35 117,-27.35 24.7,27.35 -117,27.35 " />
</g>
		<g transform="matrix(1 0 0 1 53.6 -31.8)"  >
<line style="stroke: rgb(0,0,0); stroke-width: 4; stroke-dasharray: none; stroke-linecap: butt; stroke-dashoffset: 0; stroke-linejoin: miter; stroke-miterlimit: 4; fill: none; fill-rule: nonzero; opacity: 1;" vector-effect="non-scaling-stroke"  x1="-55.80000000000001" y1="33.099999999999994" x2="55.80000000000001" y2="-33.099999999999994" />
</g>
		<g transform="matrix(1 0 0 1 113.05 -65.35)"  >
<path style="stroke: none; stroke-width: 1; stroke-dasharray: none; stroke-linecap: butt; stroke-dashoffset: 0; stroke-linejoin: miter; stroke-miterlimit: 4; fill: rgb(0,0,0); fill-rule: nonzero; opacity: 1;" vector-effect="non-scaling-stroke"  transform=" translate(-356.75, -178.35)" d="M 356.7 173.8 C 352.7 174.8 349.9 175.20000000000002 346.5 175.70000000000002 L 352.7 186.10000000000002 C 353.4 185.10000000000002 356.4 181.10000000000002 359.2 178.10000000000002 C 362.2 174.8 365.09999999999997 172.10000000000002 367 170.60000000000002 C 364.7 171.5 361 172.7 356.7 173.8 z" stroke-linecap="round" />
</g>
		<g transform="matrix(1 0 0 1 68.65 -69.55)"  >
<radialGradient id="SVGID_SVGID_XMLID_17__7_7" gradientUnits="userSpaceOnUse" gradientTransform="matrix(1 0 0 1 -312.35 -174.15)"  cx="286.748" cy="177.6294" r="204.8312" fx="286.748" fy="177.6294">
<stop offset="0%" style="stop-color:rgb(222,238,255);stop-opacity: 1"/>
<stop offset="100%" style="stop-color:rgb(51,116,255);stop-opacity: 1"/>
</radialGradient>
<rect style="stroke: none; stroke-width: 1; stroke-dasharray: none; stroke-linecap: butt; stroke-dashoffset: 0; stroke-linejoin: miter; stroke-miterlimit: 4; fill: url(#SVGID_SVGID_XMLID_17__7_7); fill-rule: nonzero; opacity: 0.7;" vector-effect="non-scaling-stroke"  x="-70.85" y="-70.85" rx="0" ry="0" width="141.7" height="141.7" />
</g>
		<g transform="matrix(1 0 0 1 -73.15 -69.55)"  >
<radialGradient id="SVGID_SVGID_XMLID_17__8_8" gradientUnits="userSpaceOnUse" gradientTransform="matrix(1 0 0 1 -170.55 -174.15)"  cx="286.748" cy="177.6294" r="204.8312" fx="286.748" fy="177.6294">
<stop offset="0%" style="stop-color:rgb(222,238,255);stop-opacity: 1"/>
<stop offset="100%" style="stop-color:rgb(51,116,255);stop-opacity: 1"/>
</radialGradient>
<rect style="stroke: none; stroke-width: 1; stroke-dasharray: none; stroke-linecap: butt; stroke-dashoffset: 0; stroke-linejoin: miter; stroke-miterlimit: 4; fill: url(#SVGID_SVGID_XMLID_17__8_8); fill-rule: nonzero; opacity: 0.7;" vector-effect="non-scaling-stroke"  x="-70.85" y="-70.85" rx="0" ry="0" width="141.7" height="141.7" />
</g>
		<g transform="matrix(1 0 0 1 -73.15 72.15)"  >
<radialGradient id="SVGID_SVGID_XMLID_17__9_9" gradientUnits="userSpaceOnUse" gradientTransform="matrix(1 0 0 1 -170.55 -315.85)"  cx="286.748" cy="177.6294" r="204.8312" fx="286.748" fy="177.6294">
<stop offset="0%" style="stop-color:rgb(222,238,255);stop-opacity: 1"/>
<stop offset="100%" style="stop-color:rgb(51,116,255);stop-opacity: 1"/>
</radialGradient>
<rect style="stroke: none; stroke-width: 1; stroke-dasharray: none; stroke-linecap: butt; stroke-dashoffset: 0; stroke-linejoin: miter; stroke-miterlimit: 4; fill: url(#SVGID_SVGID_XMLID_17__9_9); fill-rule: nonzero; opacity: 0.7;" vector-effect="non-scaling-stroke"  x="-70.85" y="-70.85" rx="0" ry="0" width="141.7" height="141.7" />
</g>
		<g transform="matrix(1 0 0 1 -119.2 28.7)"  >
<radialGradient id="SVGID_SVGID_XMLID_14__10_10" gradientUnits="userSpaceOnUse" gradientTransform="matrix(1 0 0 1 -124.5 -272.4)"  cx="292.0811" cy="268.2959" r="142.2392" fx="292.0811" fy="268.2959">
<stop offset="0%" style="stop-color:rgb(255,238,222);stop-opacity: 1"/>
<stop offset="100%" style="stop-color:rgb(255,142,82);stop-opacity: 1"/>
</radialGradient>
<polygon style="stroke: none; stroke-width: 1; stroke-dasharray: none; stroke-linecap: butt; stroke-dashoffset: 0; stroke-linejoin: miter; stroke-miterlimit: 4; fill: url(#SVGID_SVGID_XMLID_14__10_10); fill-rule: nonzero; opacity: 0.7;" vector-effect="non-scaling-stroke"  points="-24.8,-27.4 117,-27.4 24.7,27.4 -117,27.4 " />
</g>
		<g transform="matrix(1 0 0 1 68.65 72.15)"  >
<radialGradient id="SVGID_SVGID_XMLID_17__11_11" gradientUnits="userSpaceOnUse" gradientTransform="matrix(1 0 0 1 -312.35 -315.85)"  cx="286.748" cy="177.6294" r="204.8312" fx="286.748" fy="177.6294">
<stop offset="0%" style="stop-color:rgb(222,238,255);stop-opacity: 1"/>
<stop offset="100%" style="stop-color:rgb(51,116,255);stop-opacity: 1"/>
</radialGradient>
<rect style="stroke: none; stroke-width: 1; stroke-dasharray: none; stroke-linecap: butt; stroke-dashoffset: 0; stroke-linejoin: miter; stroke-miterlimit: 4; fill: url(#SVGID_SVGID_XMLID_17__11_11); fill-rule: nonzero; opacity: 0.7;" vector-effect="non-scaling-stroke"  x="-70.85" y="-70.85" rx="0" ry="0" width="141.7" height="141.7" />
</g>
		<g transform="matrix(1 0 0 1 -84.35 1.3)"  >
<line style="stroke: rgb(0,0,0); stroke-width: 4; stroke-dasharray: none; stroke-linecap: butt; stroke-dashoffset: 0; stroke-linejoin: miter; stroke-miterlimit: 4; fill: none; fill-rule: nonzero; opacity: 1;" vector-effect="non-scaling-stroke"  x1="82.15" y1="0" x2="-82.15" y2="0" />
</g>
		<g transform="matrix(1 0 0 1 -172.65 1.35)"  >
<path style="stroke: none; stroke-width: 1; stroke-dasharray: none; stroke-linecap: butt; stroke-dashoffset: 0; stroke-linejoin: miter; stroke-miterlimit: 4; fill: rgb(0,0,0); fill-rule: nonzero; opacity: 1;" vector-effect="non-scaling-stroke"  transform=" translate(-71.05, -245.05)" d="M 71.5 247.5 C 75.5 248.7 78 249.8 81.2 251.1 L 81.2 239 C 80.10000000000001 239.5 75.4 241.4 71.5 242.6 C 67.3 243.9 63.4 244.79999999999998 60.9 245.1 C 63.4 245.3 67.3 246.2 71.5 247.5 z" stroke-linecap="round" />
</g>
		<g transform="matrix(1 0 0 1 -48.35 -42.2)"  >
<radialGradient id="SVGID_SVGID_XMLID_22__12_12" gradientUnits="userSpaceOnUse" gradientTransform="matrix(1.63 -0.37 0 1 -369.47 -108.59)"  cx="244.3027" cy="214.1768" r="149.9765" fx="244.3027" fy="214.1768">
<stop offset="0%" style="stop-color:rgb(244,255,243);stop-opacity: 1"/>
<stop offset="100%" style="stop-color:rgb(94,191,83);stop-opacity: 1"/>
</radialGradient>
<polygon style="stroke: none; stroke-width: 1; stroke-dasharray: none; stroke-linecap: butt; stroke-dashoffset: 0; stroke-linejoin: miter; stroke-miterlimit: 4; fill: url(#SVGID_SVGID_XMLID_22__12_12); fill-rule: nonzero; opacity: 0.7;" vector-effect="non-scaling-stroke"  points="-46.15,-43.5 46.15,-98.2 46.15,43.5 -46.15,98.2 " />
</g>
		<g transform="matrix(1 0 0 1 -48.35 99.5)"  >
<radialGradient id="SVGID_SVGID_XMLID_23__13_13" gradientUnits="userSpaceOnUse" gradientTransform="matrix(1.63 -0.37 0 1 -369.47 -250.29)"  cx="244.3027" cy="214.1777" r="149.9758" fx="244.3027" fy="214.1777">
<stop offset="0%" style="stop-color:rgb(244,255,243);stop-opacity: 1"/>
<stop offset="100%" style="stop-color:rgb(94,191,83);stop-opacity: 1"/>
</radialGradient>
<polygon style="stroke: none; stroke-width: 1; stroke-dasharray: none; stroke-linecap: butt; stroke-dashoffset: 0; stroke-linejoin: miter; stroke-miterlimit: 4; fill: url(#SVGID_SVGID_XMLID_23__13_13); fill-rule: nonzero; opacity: 0.7;" vector-effect="non-scaling-stroke"  points="-46.15,-43.5 46.15,-98.2 46.15,43.6 -46.15,98.2 " />
</g>
		<g transform="matrix(1 0 0 1 -2.2 83.7)"  >
<line style="stroke: rgb(0,0,0); stroke-width: 4; stroke-dasharray: none; stroke-linecap: butt; stroke-dashoffset: 0; stroke-linejoin: miter; stroke-miterlimit: 4; fill: none; fill-rule: nonzero; opacity: 1;" vector-effect="non-scaling-stroke"  x1="0" y1="-82.4" x2="0" y2="82.4" />
</g>
		<g transform="matrix(1 0 0 1 -2.25 172.15)"  >
<path style="stroke: none; stroke-width: 1; stroke-dasharray: none; stroke-linecap: butt; stroke-dashoffset: 0; stroke-linejoin: miter; stroke-miterlimit: 4; fill: rgb(0,0,0); fill-rule: nonzero; opacity: 1;" vector-effect="non-scaling-stroke"  transform=" translate(-241.45, -415.85)" d="M 243.9 415.4 C 245.1 411.4 246.20000000000002 408.9 247.5 405.7 L 235.4 405.7 C 235.9 406.8 237.8 411.5 239 415.4 C 240.3 419.59999999999997 241.2 423.5 241.5 426 C 241.8 423.5 242.7 419.7 243.9 415.4 z" stroke-linecap="round" />
</g>
		<g transform="matrix(1 0 0 1 22.5 28.7)"  >
<radialGradient id="SVGID_SVGID_XMLID_14__14_14" gradientUnits="userSpaceOnUse" gradientTransform="matrix(1 0 0 1 -266.2 -272.4)"  cx="292.0811" cy="268.2959" r="142.2392" fx="292.0811" fy="268.2959">
<stop offset="0%" style="stop-color:rgb(255,238,222);stop-opacity: 1"/>
<stop offset="100%" style="stop-color:rgb(255,142,82);stop-opacity: 1"/>
</radialGradient>
<polygon style="stroke: none; stroke-width: 1; stroke-dasharray: none; stroke-linecap: butt; stroke-dashoffset: 0; stroke-linejoin: miter; stroke-miterlimit: 4; fill: url(#SVGID_SVGID_XMLID_14__14_14); fill-rule: nonzero; opacity: 0.7;" vector-effect="non-scaling-stroke"  points="-24.7,-27.4 117,-27.4 24.8,27.4 -117,27.4 " />
</g>
		<g transform="matrix(1 0 0 1 -2.2 -81.05)"  >
<line style="stroke: rgb(0,0,0); stroke-width: 4; stroke-dasharray: none; stroke-linecap: butt; stroke-dashoffset: 0; stroke-linejoin: miter; stroke-miterlimit: 4; fill: none; fill-rule: nonzero; opacity: 1;" vector-effect="non-scaling-stroke"  x1="0" y1="82.35" x2="0" y2="-82.35" />
</g>
		<g transform="matrix(1 0 0 1 -2.25 -169.55)"  >
<path style="stroke: none; stroke-width: 1; stroke-dasharray: none; stroke-linecap: butt; stroke-dashoffset: 0; stroke-linejoin: miter; stroke-miterlimit: 4; fill: rgb(0,0,0); fill-rule: nonzero; opacity: 1;" vector-effect="non-scaling-stroke"  transform=" translate(-241.45, -74.15)" d="M 239 74.6 C 237.8 78.6 236.7 81.1 235.4 84.3 L 247.5 84.3 C 247 83.2 245.1 78.5 243.9 74.6 C 242.6 70.39999999999999 241.70000000000002 66.5 241.4 63.99999999999999 C 241.2 66.5 240.3 70.4 239 74.6 z" stroke-linecap="round" />
</g>
		<g transform="matrix(1 0 0 1 79.9 1.3)"  >
<line style="stroke: rgb(0,0,0); stroke-width: 4; stroke-dasharray: none; stroke-linecap: butt; stroke-dashoffset: 0; stroke-linejoin: miter; stroke-miterlimit: 4; fill: none; fill-rule: nonzero; opacity: 1;" vector-effect="non-scaling-stroke"  x1="-82.1" y1="0" x2="82.1" y2="0" />
</g>
		<g transform="matrix(1 0 0 1 168.15 1.35)"  >
<path style="stroke: none; stroke-width: 1; stroke-dasharray: none; stroke-linecap: butt; stroke-dashoffset: 0; stroke-linejoin: miter; stroke-miterlimit: 4; fill: rgb(0,0,0); fill-rule: nonzero; opacity: 1;" vector-effect="non-scaling-stroke"  transform=" translate(-411.85, -245.05)" d="M 411.4 242.6 C 407.4 241.4 404.9 240.29999999999998 401.7 239 L 401.7 251.1 C 402.8 250.6 407.5 248.7 411.4 247.5 C 415.59999999999997 246.2 419.5 245.3 422 245 C 419.5 244.7 415.7 243.9 411.4 242.6 z" stroke-linecap="round" />
</g>
		<g transform="matrix(1 0 0 1 -58 34.4)"  >
<line style="stroke: rgb(0,0,0); stroke-width: 4; stroke-dasharray: none; stroke-linecap: butt; stroke-dashoffset: 0; stroke-linejoin: miter; stroke-miterlimit: 4; fill: none; fill-rule: nonzero; opacity: 1;" vector-effect="non-scaling-stroke"  x1="55.8" y1="-33.099999999999994" x2="-55.8" y2="33.099999999999994" />
</g>
		<g transform="matrix(1 0 0 1 -117.45 67.95)"  >
<path style="stroke: none; stroke-width: 1; stroke-dasharray: none; stroke-linecap: butt; stroke-dashoffset: 0; stroke-linejoin: miter; stroke-miterlimit: 4; fill: rgb(0,0,0); fill-rule: nonzero; opacity: 1;" vector-effect="non-scaling-stroke"  transform=" translate(-126.25, -311.65)" d="M 126.3 316.2 C 130.3 315.2 133.1 314.8 136.5 314.3 L 130.3 303.90000000000003 C 129.60000000000002 304.90000000000003 126.60000000000001 308.90000000000003 123.80000000000001 311.90000000000003 C 120.80000000000001 315.20000000000005 117.9 317.90000000000003 116.00000000000001 319.40000000000003 C 118.2 318.5 122 317.3 126.3 316.2 z" stroke-linecap="round" />
</g>
		<g transform="matrix(1 0 0 1 213.75 -10.96)" style=""  >
		<text xml:space="preserve" font-family="'Nimbus Roman No9 L',Times,serif" font-size="36" font-style="italic" font-weight="normal" style="stroke: none; stroke-width: 1; stroke-dasharray: none; stroke-linecap: butt; stroke-dashoffset: 0; stroke-linejoin: miter; stroke-miterlimit: 4; fill: rgb(0,0,0); fill-rule: nonzero; opacity: 1; white-space: pre;" ><tspan x="-10.01" y="11.31" >L</tspan></text>
</g>
		<g transform="matrix(1 0 0 1 -191.28 -10.96)" style=""  >
		<text xml:space="preserve" font-family="'Nimbus Roman No9 L',Times,serif" font-size="36" font-style="italic" font-weight="normal" style="stroke: none; stroke-width: 1; stroke-dasharray: none; stroke-linecap: butt; stroke-dashoffset: 0; stroke-linejoin: miter; stroke-miterlimit: 4; fill: rgb(0,0,0); fill-rule: nonzero; opacity: 1; white-space: pre;" ><tspan x="-11" y="11.31" >R</tspan></text>
</g>
		<g transform="matrix(1 0 0 1 7.79 -215.96)" style=""  >
		<text xml:space="preserve" font-family="'Nimbus Roman No9 L',Times,serif" font-size="36" font-style="italic" font-weight="normal" style="stroke: none; stroke-width: 1; stroke-dasharray: none; stroke-linecap: butt; stroke-dashoffset: 0; stroke-linejoin: miter; stroke-miterlimit: 4; fill: rgb(0,0,0); fill-rule: nonzero; opacity: 1; white-space: pre;" ><tspan x="-9" y="11.31" >S</tspan></text>
</g>
		<g transform="matrix(1 0 0 1 1.78 196.04)" style=""  >
		<text xml:space="preserve" font-family="'Nimbus Roman No9 L',Times,serif" font-size="36" font-style="italic" font-weight="normal" style="stroke: none; stroke-width: 1; stroke-dasharray: none; stroke-linecap: butt; stroke-dashoffset: 0; stroke-linejoin: miter; stroke-miterlimit: 4; fill: rgb(0,0,0); fill-rule: nonzero; opacity: 1; white-space: pre;" ><tspan x="-5.99" y="11.31" >I</tspan></text>
</g>
		<g transform="matrix(1 0 0 1 -139.3 71.04)" style=""  >
		<text xml:space="preserve" font-family="'Nimbus Roman No9 L',Times,serif" font-size="36" font-style="italic" font-weight="normal" style="stroke: none; stroke-width: 1; stroke-dasharray: none; stroke-linecap: butt; stroke-dashoffset: 0; stroke-linejoin: miter; stroke-miterlimit: 4; fill: rgb(0,0,0); fill-rule: nonzero; opacity: 1; white-space: pre;" ><tspan x="-11" y="11.31" >A</tspan></text>
</g>
		<g transform="matrix(1 0 0 1 160.7 -95.96)" style=""  >
		<text xml:space="preserve" font-family="'Nimbus Roman No9 L',Times,serif" font-size="36" font-style="italic" font-weight="normal" style="stroke: none; stroke-width: 1; stroke-dasharray: none; stroke-linecap: butt; stroke-dashoffset: 0; stroke-linejoin: miter; stroke-miterlimit: 4; fill: rgb(0,0,0); fill-rule: nonzero; opacity: 1; white-space: pre;" ><tspan x="-11" y="11.31" >P</tspan></text>
</g>
		<g transform="matrix(1 0 0 1 0 0)"  >
<rect style="stroke: none; stroke-width: 1; stroke-dasharray: none; stroke-linecap: butt; stroke-dashoffset: 0; stroke-linejoin: miter; stroke-miterlimit: 4; fill: none; fill-rule: nonzero; opacity: 1;" vector-effect="non-scaling-stroke"  x="-243.7" y="-243.7" rx="0" ry="0" width="487.4" height="487.4" />
</g>
</g>
</g>
</svg>